<svg xmlns="http://www.w3.org/2000/svg" viewBox="0 0 19.44 17.92"><defs><style>.cls-1{fill:#fff;fill-rule:evenodd;}</style></defs><title>list_1</title><g id="Слой_2" data-name="Слой 2"><g id="_1" data-name="???? 1"><polygon class="cls-1" points="5.94 5.99 5.94 7.49 5.99 7.51 11.96 7.51 12 7.49 12 5.99 11.98 5.97 5.99 5.97 5.94 5.99"/><polygon class="cls-1" points="5.94 8.96 5.94 10.46 5.99 10.48 11.96 10.48 12 10.46 12 8.96 11.98 8.94 5.99 8.94 5.94 8.96"/><polygon class="cls-1" points="5.94 11.93 5.94 13.43 5.99 13.45 9.72 13.45 9.74 13.43 9.74 11.93 9.72 11.91 5.99 11.91 5.94 11.93"/><path class="cls-1" d="M17.42,17.87s.09,0,0,0h0Zm-13.22,0s.09,0,0,0h0Zm13.69-.12Zm.31-.07,0,0v0h.07l0,0,0,0,0,0,0,0,0,0,0,0,0,0h.08l0,0,0,0,0,0,0,0,0,0,0,0,0,0,0,0,0,0,0,0,0,0,0,0,0,0,0,0,0,0,0,0,0,0,0,0,0,0,0,0,0,0,0-.07,0,0,0,0v0l0,0,0,0v0l0,0,0,0,0,0v0h0v0h0l0,0,0-.12,0-.07,0,0V16l-.05,0L19.4,16h0l0-.12V13.41l0,0H16.47V2l0-.12h0l0-.1,0,.05V1.76l0,0,0-.07,0-.12,0,0h0v0h0v0l0,0,0,0,0,0v0l0,0,0,0v0l0,0,0,0,0-.07,0,0,0,0,0,0,0,0,0,0,0,0,0,0,0,0,0,0,0,0,0,0,0,0,0,0,0,0,0,0,0,0,0,0,0,0,0,0,0,0,0,0-.05,0,0,0,0,0,0,0,0,0,0,0,0,0,0,0,0,0h-.07v0l0,0-.06,0V.21l0,0L15,.17l0,0,0,0L14.9.1l-.07,0-.07,0h-.07l-.07,0-.1,0h-.17V0l.07,0-.12,0H2.12V0H1.95l-.1,0L1.78,0H1.71l-.07,0L1.57.1,1.5.12l0,0,0,0-.09,0,0,0V.29l0,0,0,0v0H1.12l0,0,0,0,0,0,0,0,0,0,0,0,0,0H.86l0,0,0,0,0,0,0,0,0,0,0,0,0,0,0,0,0,0,0,0,0,0,0,0,0,0,0,0,0,0,0,0,0,0,0,0,0,0,0,0,0,0,0,.07,0,0,0,0v0l0,0,0,0v0l0,0,0,0,0,0v0h0v0h0l0,0,0,.12,0,.07,0,0v.12l.05,0L0,1.93H0L0,2V4.52l0,0H13.45l0,0,0-2.38v0l0,0,0,0,0,0,0,0v0l0,0,0,0,.07,0,0,0,0-.05,0,0,0,0,0,0,0,0,0,0,0,0,0,0,0,0,.07,0,0,0,.07,0,0,0h.31l0,0,.07,0,0,0,.07,0,0,0,0,0,0,0,0,0,0,0,0,0,0,0V1.9l0,0,.08,0,0,0,0,0V2l0,0,0,0,0,0,0,0v0l0,13.74,0,.12h0l0,.1,0-.05v.12l0,0,0,.07,0,.07-10.46,0-.14,0,0,0H4.25l0,0,0,0-.07,0,0,0,0,0,0,0,0,0H4v0l0,0,0,0,0,0,0,0,0-.12,0-.17h0l0,.07V5.23l0,0H2.28l0,0v10.6l0,.07v0l0,.14,0,.1h0l.05,0,0,0,0,0v.07l0,.07,0,0,0,.1,0,0,.08,0,0,0,0,0v0l0,0,0,0,0,.09,0,0,0,0,0,0,0,0,0,0,0,0,0,0,0,0,0,0,0,0h0v.07l0,0,0,0,0,0h0v0l0,0,0,0,0,0,0,0,0,0,0,0,0,0,0,0,0,0,0,0,0,0,0,0,0,0,0,0,0,0,0,0,0,0,0,0,0,0,0,0,0,0,0,0,.07,0,0,0,0,0H3.8v0l.07,0,.07,0H4l0,0,.12,0h.17v0l-.07,0,.12,0H17.33v0h.17l.09,0,.07,0h.07l.07,0,.07,0,.07,0,0,0,0,0,.09,0,0,0v-.07l0,0Zm-14.71,0Zm-.81-.69Zm14.71-.64Zm-.52,0ZM4,16.16Zm13.67-.1,0,0,0,0,0,0,0,0,0,0,0,0-.07,0,0,0-.07,0,0,0H17l0,0-.07,0,0,0-.07,0,0,0,0,0,0,0,0,0,0,0,0,0,0,0V16l0,0-.08,0,0,0,0,0v0l0,0,0,0,0,0,0,0v0l0-.86h1.36l0,.86v0l0,0,0,0,0,0,0,0v0l0,0,0,0-.07,0,0,0,0,.05,0,0,0,0ZM1.71,1.93l0,0,0-.05,0,0,0,0,0,0,0,0,0,0,0,0,0,0,0,0,.07,0,0,0,.07,0,0,0,.17,0,9.7,0,0,.07,0,.07,0,0v.12l.05,0-.05.09h0l0,.12V3H1.61l0-.86v0l0,0,0,0,0,0,0,0v0l0,0,0,0,.07,0Zm12.72-.33Zm-.52,0ZM2,1.59ZM14.93.14ZM1.52.14ZM14.45,0s.09,0,0,0h0ZM2,0s.09,0,0,0H2Z"/></g></g></svg>