<?xml version="1.0" encoding="UTF-8"?>
<!DOCTYPE svg PUBLIC "-//W3C//DTD SVG 1.1//EN" "http://www.w3.org/Graphics/SVG/1.1/DTD/svg11.dtd">
<!-- Creator: CorelDRAW 2017 -->
<svg xmlns="http://www.w3.org/2000/svg" xml:space="preserve" width="25.8154mm" height="23.7959mm" version="1.1" style="shape-rendering:geometricPrecision; text-rendering:geometricPrecision; image-rendering:optimizeQuality; fill-rule:evenodd; clip-rule:evenodd"
viewBox="0 0 19.96 18.4"
 xmlns:xlink="http://www.w3.org/1999/xlink">
 <defs>
  <style type="text/css">
   <![CDATA[
    .fil0 {fill:#FEFEFE}
   ]]>
  </style>
 </defs>
 <g id="Слой_x0020_1">
  <metadata id="CorelCorpID_0Corel-Layer"/>
  <g id="_2882013182704">
   <polygon class="fil0" points="6.1,6.15 6.1,7.69 6.15,7.71 12.27,7.71 12.32,7.69 12.32,6.15 12.3,6.12 6.15,6.12 "/>
   <polygon class="fil0" points="6.1,9.2 6.1,10.74 6.15,10.76 12.27,10.76 12.32,10.74 12.32,9.2 12.3,9.17 6.15,9.17 "/>
   <polygon class="fil0" points="6.1,12.25 6.1,13.78 6.15,13.81 9.98,13.81 10,13.78 10,12.25 9.98,12.22 6.15,12.22 "/>
   <path class="fil0" d="M17.88 18.35c0.02,-0.02 0.09,0.03 0.03,0.01 0,-0 -0,-0 -0,-0 -0,-0 -0.03,-0.01 -0.02,-0.01zm-13.57 0c0.02,-0.02 0.09,0.03 0.03,0.01 0,-0 -0,-0 -0,-0 -0,-0 -0.03,-0.01 -0.02,-0.01zm14.05 -0.12c0.04,-0.04 -0.04,0.04 0,0zm0.32 -0.07l0.05 -0.02 0 -0.05 0.07 0 0.05 -0.02 0.02 -0.02 0.02 -0.02 0.05 -0.02 0.02 -0.02 0.05 -0.02 -0.03 -0.03 0.02 -0.01 0.05 0.01 0.02 -0.05 0.02 -0.02 0.05 -0.02 0.02 -0.02 0.02 -0.02 0.02 -0.02 0.02 -0.02 0.02 -0.02 0.02 -0.02 0.02 -0.02 0.02 -0.05 0.05 -0.02 0.02 -0.05 0.02 -0.02 0.02 -0.05 0.02 -0.02 -0.03 -0.03 0.02 -0.02 0.03 0.02 0.02 -0.05 0.02 -0.02 0.02 -0.07 0.02 -0.02 0.02 -0.02 0 -0.02 0.02 -0.02 0.02 -0.05 0 -0.05 0.02 -0.02 0.02 -0.02 0.02 -0.05 0 -0.05 -0.02 0 0 -0.02 0.02 0 0.02 0 0.02 -0.05 0.02 -0.12 0.02 -0.07 0.02 -0.05 0 -0.12 -0.05 0.05 0.05 -0.1 0.02 0 0.02 -0.12 0 -2.54 -0.05 -0.02 -3 0 0 -11.64 -0.02 -0.12 -0.02 0 -0.04 -0.1 0.04 0.05 0 -0.12 -0.02 -0.05 -0.02 -0.07 -0.02 -0.12 -0.02 -0.05 -0.02 0 -0.02 0 0 -0.02 0.02 0 0 -0.05 -0.02 -0.05 -0.02 -0.02 -0.02 -0.02 0 -0.05 -0.02 -0.05 -0.02 -0.02 0 -0.02 -0.02 -0.02 -0.02 -0.02 -0.02 -0.07 -0.02 -0.02 -0.02 -0.05 -0.03 0.03 -0.02 -0.02 0.02 -0.03 -0.02 -0.02 -0.02 -0.05 -0.02 -0.02 -0.02 -0.05 -0.05 -0.02 -0.02 -0.05 -0.02 -0.02 -0.02 -0.02 -0.02 -0.02 -0.02 -0.02 -0.02 -0.02 -0.02 -0.02 -0.02 -0.02 -0.05 -0.02 -0.02 -0.02 -0.02 -0.05 -0.05 0.03 -0.02 -0.02 0.02 -0.03 -0.05 -0.02 -0.02 -0.02 -0.05 -0.02 -0.02 -0.02 -0.02 -0.02 -0.05 -0.02 -0.07 0 0 -0.05 -0.05 -0.02 -0.06 0.05 0.01 -0.07 -0.05 -0.02 -0.1 -0.02 -0.02 -0.02 -0.05 -0.02 -0.07 -0.02 -0.07 -0.02 -0.07 -0.02 -0.02 0 -0.05 0 -0.07 -0.02 -0.1 -0.02 -0.17 0 0 0.02 0.07 0.02 -0.12 -0.02 -12.47 0 -0.12 0 0.07 0 0 -0.02 -0.17 0 -0.1 0.02 -0.07 0.02 -0.05 0 -0.02 0 -0.07 0.02 -0.07 0.02 -0.07 0.02 -0.05 0.02 -0.02 0.02 -0.1 0.02 -0.05 0.02 -0 0.07 -0.05 -0.05 -0.05 0.02 0 0.05 -0.07 0 -0.05 0.02 -0.02 0.02 -0.02 0.02 -0.05 0.02 -0.02 0.02 -0.05 0.02 0.03 0.03 -0.02 0.01 -0.05 -0.01 -0.02 0.05 -0.02 0.02 -0.05 0.02 -0.02 0.02 -0.02 0.02 -0.02 0.02 -0.02 0.02 -0.02 0.02 -0.02 0.02 -0.02 0.02 -0.02 0.05 -0.05 0.02 -0.02 0.05 -0.02 0.02 -0.02 0.05 -0.02 0.02 0.03 0.03 -0.02 0.02 -0.03 -0.02 -0.02 0.05 -0.02 0.02 -0.02 0.07 -0.02 0.02 -0.02 0.02 0 0.02 -0.02 0.02 -0.02 0.05 0 0.05 -0.02 0.02 -0.02 0.02 -0.02 0.05 0 0.05 0.02 0 0 0.02 -0.02 0 -0.02 0 -0.02 0.05 -0.02 0.12 -0.02 0.07 -0.02 0.05 0 0.12 0.05 -0.05 -0.05 0.1 -0.02 0 -0.02 0.12 0 2.54 0.05 0.02 13.76 0 0.05 -0.02 0.02 -2.44 0 -0.02 -0.02 -0.02 0.02 -0.02 0.02 -0.05 0.02 -0.02 0 -0.05 -0.03 0.03 -0.02 -0.03 0.07 -0.02 0.02 -0.02 -0.03 -0.05 0.02 -0.02 0.03 0.02 0.02 -0.02 0.02 -0.02 0.02 -0.02 0.02 -0.02 0.02 -0.02 0.02 -0.02 0.07 -0.02 0.05 -0.02 0.07 -0.02 0.05 -0.02 0.32 0 0.05 0.02 0.07 0.02 0.05 0.02 0.07 0.02 0.02 0.02 0.02 0.02 0.02 0.02 0.02 0.02 0.02 0.02 0.02 0.02 0.03 -0.03 0.01 0.02 -0.01 0.05 0.02 0.02 0.08 0.03 -0.02 0.02 -0.03 -0.02 0 0.05 0.02 0.02 0.02 0.05 0.02 0.02 -0.02 0.02 0 0.02 0.02 14.1 0.02 0.12 0.02 0 0.04 0.1 -0.04 -0.05 0 0.12 0.02 0.05 0.02 0.07 0.02 0.07 -10.74 -0.02 -0.15 -0.02 -0.05 -0.02 -0.07 0 -0.02 -0.02 -0.02 -0.02 -0.07 -0.02 -0.02 -0.02 -0.02 -0.02 -0.02 -0.02 -0.02 -0.02 -0.05 0 0 -0.05 -0.02 -0.02 -0.02 -0.05 -0.02 -0.02 -0.02 -0.05 -0.02 -0.12 -0.02 -0.17 -0.02 0 -0.02 0.07 0 -10.76 -0.02 -0.05 -1.54 0 -0.02 0.05 0 10.81 0 0.07 -0.02 0.07 0 0.02 0.02 0.15 0.02 0.1 0.02 0 0.05 0.03 -0.02 0.02 -0.03 -0.02 0 0.07 0.02 0.07 0.02 0.05 0.02 0.1 0.02 0.05 0.08 0.03 -0.02 0.02 -0.03 -0.02 0 0.05 0.02 0.02 0.02 0.02 0.02 0.1 0.02 0.02 0.02 0.05 0.03 -0.03 0.02 0.02 -0.02 0.03 0.02 0.05 0.02 0.05 0.02 0.02 0.02 0.05 0.02 0.02 0.05 0 0 0.07 0.02 0.02 0.02 0.02 0.02 0.02 0.05 0 0 0.05 0.02 0.02 0.02 0.02 0.02 0.02 0.02 0.02 0.02 0.02 0.02 0.02 0.02 0.02 0.02 0.02 0.02 0.02 0.02 0.02 0.05 0.02 0.02 0.02 0.05 0.02 0.02 0.02 0.02 0.02 0.05 0.02 0.05 0.02 0.05 0.02 0.02 0.02 0.05 0.02 0.05 0.02 0.05 0.02 0.07 0.02 0.05 0.02 0.05 0.02 0.05 0 0.02 0 0 0.02 0.07 0.02 0.07 0.02 0.02 0 0.05 0 0.05 0.02 0.12 0.02 0.17 0 0 -0.02 -0.07 -0.02 0.12 0.02 13.22 0 0.12 0 -0.07 0 0 0.02 0.17 0 0.1 -0.02 0.07 -0.02 0.05 0 0.02 0 0.07 -0.02 0.07 -0.02 0.07 -0.02 0.05 -0.02 0.02 -0.02 0.1 -0.02 0.05 -0.02 0 -0.07 0.05 0.05zm-15.1 -0.05c0.04,-0.04 -0.04,0.04 0,0zm-0.83 -0.71c0.04,-0.04 -0.04,0.04 0,0zm15.1 -0.66c0.04,-0.04 -0.04,0.04 0,0zm-0.54 0c0.04,-0.04 -0.04,0.04 0,0zm-13.2 -0.15c0.04,-0.04 -0.04,0.04 0,0zm14.03 -0.1l-0.02 0.02 -0.02 0.02 -0.02 0.02 -0.02 0.02 -0.02 0.02 -0.02 0.02 -0.07 0.02 -0.05 0.02 -0.07 0.02 -0.05 0.02 -0.32 0 -0.05 -0.02 -0.07 -0.02 -0.05 -0.02 -0.07 -0.02 -0.02 -0.02 -0.02 -0.02 -0.02 -0.02 -0.02 -0.02 -0.02 -0.02 -0.02 -0.02 -0.03 0.03 -0.01 -0.02 0.01 -0.05 -0.02 -0.02 -0.08 -0.03 0.02 -0.02 0.03 0.02 0 -0.05 -0.02 -0.02 -0.02 -0.05 -0.02 -0.02 0.02 -0.02 0 -0.02 -0.02 -0.88 1.39 0 -0.03 0.88 0 0.02 0.02 0.02 -0.02 0.02 -0.02 0.05 -0.02 0.02 0 0.05 0.03 -0.03 0.02 0.03 -0.07 0.02 -0.02 0.02 0.03 0.05 -0.02 0.02 -0.03 -0.02zm-16.4 -14.52l0.02 -0.02 -0.03 -0.05 0.02 -0.02 0.03 0.02 0.02 -0.02 0.02 -0.02 0.02 -0.02 0.02 -0.02 0.02 -0.02 0.02 -0.02 0.07 -0.02 0.05 -0.02 0.07 -0.02 0.05 -0.02 0.17 -0.02 9.96 -0.02 -0.03 0.07 -0.02 0.07 -0.02 0.05 0 0.12 0.05 -0.05 -0.05 0.1 -0.02 0 -0.02 0.12 0 0.98 -10.54 0 0.03 -0.88 0 -0.02 -0.02 -0.02 0.02 -0.02 0.02 -0.05 0.02 -0.02 0 -0.05 -0.03 0.03 -0.02 -0.03 0.07 -0.02zm13.05 -0.34c0.04,-0.04 -0.04,0.04 0,0zm-0.54 0c0.04,-0.04 -0.04,0.04 0,0zm-12.2 0c0.04,-0.04 -0.04,0.04 0,0zm13.25 -1.49c0.04,-0.04 -0.04,0.04 0,0zm-13.76 0c0.04,-0.04 -0.04,0.04 0,0zm13.27 -0.12c0.02,-0.02 0.09,0.03 0.03,0.01 0,0 -0,-0 -0,-0 -0,-0 -0.03,-0.01 -0.02,-0.01zm-12.81 0c0.02,-0.02 0.09,0.03 0.03,0.01 0,0 -0,-0 -0,-0 -0,-0 -0.03,-0.01 -0.02,-0.01z"/>
  </g>
 </g>
</svg>
