<svg xmlns="http://www.w3.org/2000/svg" viewBox="0 0 62.46 14.64"><defs><style>.cls-1{fill:#fff;fill-rule:evenodd;}</style></defs><title>logo-white</title><g id="Слой_2" data-name="Слой 2"><g id="_1" data-name="???? 1"><path class="cls-1" d="M12.13,0,3.21,0,1.6,11.53H0v3.1H2.12c1.73,0,2.56-1.08,2.93-2.76l1.15-9H8.63V14.64h3.5Z"/><path class="cls-1" d="M37.35,2.92h4.33v8.81H37.35V2.92ZM34.48,0V14.64H44.55V0Z"/><path class="cls-1" d="M26.94,0H32.8V2.92H28.38V14.64h-3.3a.2.2,0,0,1-.2-.2V2.05A2.06,2.06,0,0,1,26.94,0Z"/><path class="cls-1" d="M48.75,0h6.09V2.92H50.19v8.81h4.65v2.91H48.75a2.06,2.06,0,0,1-2.05-2.05V2.05A2.06,2.06,0,0,1,48.75,0Z"/><path class="cls-1" d="M16.32,0h6a2,2,0,0,1,.39,0V2.92H17.77V6h3.72V8.91H17.77v2.82h4.91V14.6a2,2,0,0,1-.39,0h-6a2.06,2.06,0,0,1-2.05-2.05V2.05A2.06,2.06,0,0,1,16.32,0Z"/><path class="cls-1" d="M58.42.52h.88V0H56.93V.52h.88v2.4h.61V.52Zm4-.52h-.75l-.65,2.34L60.39,0h-.76V2.92h.57V1.27h0l.48,1.65h.74l.46-1.65h0V2.92h.57Z"/></g></g></svg>