<?xml version="1.0" encoding="UTF-8"?>
<!DOCTYPE svg PUBLIC "-//W3C//DTD SVG 1.1//EN" "http://www.w3.org/Graphics/SVG/1.1/DTD/svg11.dtd">
<!-- Creator: CorelDRAW 2017 -->
<svg xmlns="http://www.w3.org/2000/svg" xml:space="preserve" width="28.5865mm" height="27.7074mm" version="1.1" style="shape-rendering:geometricPrecision; text-rendering:geometricPrecision; image-rendering:optimizeQuality; fill-rule:evenodd; clip-rule:evenodd"
viewBox="0 0 24.42 23.67"
 xmlns:xlink="http://www.w3.org/1999/xlink">
 <defs>
  <style type="text/css">
   <![CDATA[
    .fil0 {fill:#FEFEFE}
   ]]>
  </style>
 </defs>
 <g id="Слой_x0020_1">
  <metadata id="CorelCorpID_0Corel-Layer"/>
  <g id="_2882105269408">
   <path class="fil0" d="M3.07 6.7l3.37 0.04c-0.03,0.06 -0.05,0.05 -0.05,0.14l0 1.91 6.63 0c0.24,0 0.14,-0.71 0.14,-0.95 0,-0.33 0.07,-0.86 -0.05,-1.1l3.34 0 0.04 -0.04 -6.73 -6.7 -6.7 6.7z"/>
   <path class="fil0" d="M-0 11.84l0 9.78c0.13,0.2 0.15,0.49 0.3,0.71 0.16,0.24 0.25,0.36 0.46,0.55 0.3,0.28 0.88,0.56 1.44,0.56l12.69 0c-0.04,-0.12 -1.02,-0.97 -1.24,-1.38 -2.18,0 -4.36,0 -6.54,0 -1.1,0 -2.19,0 -3.29,0 -1.06,0 -2.43,0.2 -2.43,-0.86l0 -4.63 11.11 0c0.2,0 0.37,-0.76 0.44,-0.94 0.16,-0.37 0.27,-0.6 0.47,-0.91 0.21,-0.32 0.38,-0.5 0.59,-0.79 0.16,-0.22 0.62,-0.55 0.69,-0.74l-13.31 0 0 -0.86c0,-0.46 0.35,-0.86 0.81,-0.86l15.6 0c0.26,0 0.37,0.09 0.52,0.18l1.62 0.06c-0.22,-0.96 -1.17,-1.67 -2.39,-1.67l-15.17 0c-0.7,0 -1.17,0.23 -1.57,0.52 -0.62,0.45 -0.48,0.77 -0.81,1.29z"/>
   <path class="fil0" d="M19.03 22.62c-2.3,0 -4.39,-1.92 -4.39,-4.15l0 -0.48c0,-2.22 2.08,-4.15 4.34,-4.15 2.37,0 4.39,1.97 4.39,4.34l0 0.1c0,2.33 -2.01,4.34 -4.34,4.34zm5.39 -3.67l0 -1.43c-0.06,-0.09 -0.19,-0.81 -0.25,-0.99 -0.07,-0.23 -0.26,-0.67 -0.37,-0.87 -0.36,-0.62 -0.62,-0.93 -1.11,-1.42 -0.72,-0.72 -2.13,-1.44 -3.57,-1.44l-0.33 0c-2.83,0 -5.25,2.54 -5.25,5.44 0,2.94 2.43,5.44 5.34,5.44l0.19 0c1.44,0 2.87,-0.7 3.59,-1.42 0.51,-0.5 0.73,-0.79 1.11,-1.41 0.16,-0.26 0.27,-0.56 0.37,-0.87 0.05,-0.16 0.24,-0.97 0.27,-1.02z"/>
   <path class="fil0" d="M18.6 14.94l0 3.05 -1.91 0c-0.25,0 -0.52,0.21 -0.52,0.48l0 0.1c0,0.28 0.25,0.52 0.52,0.52l2.39 0c0.34,0 0.62,-0.19 0.62,-0.52l0 -3.77c0,-0.24 -0.24,-0.48 -0.48,-0.48l-0.1 0c-0.33,0 -0.52,0.28 -0.52,0.62z"/>
  </g>
 </g>
</svg>
