<?xml version="1.0" encoding="UTF-8"?>
<!DOCTYPE svg PUBLIC "-//W3C//DTD SVG 1.1//EN" "http://www.w3.org/Graphics/SVG/1.1/DTD/svg11.dtd">
<!-- Creator: CorelDRAW 2017 -->
<svg xmlns="http://www.w3.org/2000/svg" xml:space="preserve" width="28.306mm" height="26.7196mm" version="1.1" style="shape-rendering:geometricPrecision; text-rendering:geometricPrecision; image-rendering:optimizeQuality; fill-rule:evenodd; clip-rule:evenodd"
viewBox="0 0 24.08 22.73"
 xmlns:xlink="http://www.w3.org/1999/xlink">
 <defs>
  <style type="text/css">
   <![CDATA[
    .fil0 {fill:#FEFEFE}
   ]]>
  </style>
 </defs>
 <g id="Слой_x0020_1">
  <metadata id="CorelCorpID_0Corel-Layer"/>
  <g id="_2882106690720">
   <path class="fil0" d="M6.75 2.98l0 0.07c0,0.19 2.44,2.63 2.63,2.63l0.21 0c0.19,0 1.85,-1.66 1.85,-1.85l0 -0.07c0,-0.17 -0.26,-0.43 -0.43,-0.43l-0.21 0c-0.24,0 -1.02,0.96 -1.28,1.14 -0.54,-0.36 -1.72,-1.99 -2.34,-1.99l-0.07 0c-0.23,0 -0.36,0.26 -0.36,0.5z"/>
   <path class="fil0" d="M20.17 8.24c-0.07,-0.3 -0.14,-0.35 -0.36,-0.5l-0.28 0c0,0.12 0.06,0.07 0.21,0.07l0.14 -0 0.28 0.43z"/>
   <path class="fil0" d="M6.75 9.59c-0.12,-0.17 -0.58,-0.47 -0.8,-0.69 -0.26,-0.26 -0.51,-0.63 -0.76,-0.8 0.34,0.51 1.01,1.2 1.56,1.49z"/>
   <path class="fil0" d="M5.33 4.83c0,-0.89 0.64,-2.03 1.12,-2.5 0.39,-0.39 1.61,-1.26 2.29,-1.26l1.28 0c2.02,0 3.69,2.08 3.69,4.26 0,2.11 -1.8,4.05 -3.91,4.05l-0.5 0c-2.37,0 -3.98,-1.91 -3.98,-4.33l0 -0.21zm-0.14 3.27c0.25,0.17 0.51,0.54 0.76,0.8 0.22,0.22 0.68,0.53 0.8,0.69 0.62,0.33 1.42,0.78 2.34,0.78l0.71 0c2.59,0 4.9,-2.5 4.9,-5.11 0,-1.53 -0.66,-2.76 -1.44,-3.53 -0.37,-0.37 -0.85,-0.93 -1.36,-1.13 -0.25,-0.1 -1.86,-0.58 -1.89,-0.6l-1.14 0c-0.23,0.15 -0.59,0.14 -0.89,0.24 -0.41,0.14 -0.53,0.24 -0.84,0.37 -0.72,0.31 -0.87,0.54 -1.38,1.04 -0.68,0.68 -1.44,2 -1.44,3.32l0 0.64c0,1.17 0.69,1.88 0.85,2.49z"/>
   <path class="fil0" d="M1.92 8.45l0 1.56c0,0.23 0.17,0.71 0.43,0.71l0.14 0c0.24,0 0.5,-0.13 0.5,-0.36l0 -1.63 0.43 0c0.3,0 0.57,-0.22 0.57,-0.5 0,-0.24 -0.13,-0.5 -0.36,-0.5l-1.14 0c-0.42,0 -0.57,0.29 -0.57,0.71z"/>
   <polygon class="fil0" points="0.14,11.93 0.07,12 -0,12 -0,12.15 0.07,12 0.14,11.93 0.21,11.86 0.36,11.79 0.21,11.86 "/>
   <path class="fil0" d="M0.21 11.86l-0.07 0.07 -0.07 0.07 -0.07 0.14 0 0.36c0.16,0.11 0.25,0.28 0.43,0.28l3.84 0c0.32,0 0.71,-0.13 0.71,-0.43l0 -0.07c0,-0.26 -0.11,-0.34 -0.21,-0.5l-4.4 0 -0.14 0.07z"/>
   <path class="fil0" d="M0.99 14.35c0,0.29 0.39,0.43 0.71,0.43l1.92 0c0.17,0 0.36,-0.19 0.36,-0.36l0 -0.28c0,-0.17 -0.19,-0.36 -0.36,-0.36l-1.7 0c-0.55,0 -0.92,-0 -0.92,0.57z"/>
   <path class="fil0" d="M2.56 15.84c0.12,0.11 0.36,0.22 0.36,0.43l0 1.56 13.14 0 -0.07 -9.09 0 9.02 -13 0 0 -1.49c0,-0.23 -0.24,-0.38 -0.43,-0.43z"/>
   <polygon class="fil0" points="17.05,17.76 23.09,17.83 23.01,14.21 23.01,17.76 17.05,17.76 17.05,8.74 "/>
   <polygon class="fil0" points="2.27,18.75 1.99,18.47 1.99,18.61 2.15,18.74 "/>
   <path class="fil0" d="M4.47 18.89l-0.07 0.07 -0.07 0.14 -0.07 0.14 -0.07 0.07 0.07 -0.07 0.07 -0.14 0.07 -0.14 0.07 -0.07 0.07 -0.14c-0.31,0 -0.8,-0.05 -0.99,0.07 0.25,0 0.8,-0.08 0.92,0.07z"/>
   <polygon class="fil0" points="21.66,18.89 23.01,18.82 23.01,19.82 23.08,18.75 21.58,18.76 "/>
   <path class="fil0" d="M18.18 20.53l0 -0.57c0,-0.65 0.63,-1.14 1.35,-1.14l0.14 0c0.72,0 1.35,0.51 1.35,1.14l0 0.5c0,0.65 -0.56,1.21 -1.21,1.21l-0.57 0c-0.49,0 -1.07,-0.67 -1.07,-1.14zm-13.14 0l0 -0.28c0,-0.93 0.49,-1.42 1.42,-1.42l0.28 0c0.47,0 1.14,0.6 1.14,1.07l0 0.78c0,0.32 -0.65,0.99 -1.07,0.99l-0.71 0c-0.49,0 -1.07,-0.67 -1.07,-1.14zm17.97 -0.71l-0.92 0 -0.43 -0.92 -0.08 -0.14 1.5 -0 -0.07 1.07zm-13.92 0c-0.23,0 -0.59,-0.83 -0.64,-1.07l9.16 0 -0.47 1.04 -8.05 0.02zm-4.69 -0.85l-0.07 0.14 -0.07 0.14 -0.07 0.07c-0.05,0.21 -0.04,0.43 -0.28,0.43l-0.36 0 0 -0.92c0.2,-0.13 0.68,-0.07 0.99,-0.07l-0.07 0.14 -0.07 0.07zm12.64 -10.23l2.27 0c0.13,0.55 1.06,2.56 1.35,3.13 0.47,0.94 0.41,0.54 1.05,1.15 0.3,0.28 0.94,0.67 1.3,0.91l0 0.28 0.07 3.62 -6.04 -0.07 0 -9.02zm-1.07 0l0.07 9.09 -13.14 0 0 -1.56c0,-0.2 -0.23,-0.32 -0.36,-0.43 -0.66,0.01 -0.64,0.41 -0.64,1.07 0,0.47 -0.1,1.22 0.07,1.56l0.28 0.28 0.28 0 0 1.56c0,0.2 0.23,0.34 0.36,0.43l1.14 0c0.31,0.64 0.26,0.72 0.76,1.23 0.56,0.56 0.7,0.4 1.23,0.76l0.78 0c0.81,-0.56 1.73,-0.52 2.06,-1.92l8.17 0c0.13,0 0.66,0.91 0.91,1.15 0.67,0.68 0.84,0.43 1.37,0.76l0.57 0c0.42,-0.26 0.81,-0.13 1.33,-0.66 0.48,-0.49 0.48,-0.67 0.8,-1.26 0.94,0 1.61,0.16 2.06,-0.36l0 -6.61c-0.12,-0.09 -0.27,-0.45 -0.51,-0.69 -0.27,-0.27 -0.38,-0.31 -0.67,-0.53 -0.29,-0.22 -1.16,-0.81 -1.27,-1.07 -0.23,-0.55 -0.48,-1.18 -0.74,-1.68 -0.11,-0.22 -0.67,-1.45 -0.71,-1.63l-0.28 -0.43 -0.14 0c-0.15,0 -0.21,0.05 -0.21,-0.07 -0.83,0 -1.66,0 -2.49,0 -0.64,0 -2.06,-0.2 -2.06,0.43 0,0.57 0.42,0.57 0.99,0.57z"/>
  </g>
 </g>
</svg>
