<svg xmlns="http://www.w3.org/2000/svg" xmlns:xlink="http://www.w3.org/1999/xlink" viewBox="0 0 101.86 18.79"><defs><style>.cls-1,.cls-10,.cls-11,.cls-12,.cls-2,.cls-3,.cls-4,.cls-5,.cls-6,.cls-7,.cls-8,.cls-9{fill-rule:evenodd;}.cls-1{fill:url(#GradientFill_1);}.cls-2{fill:url(#GradientFill_1-2);}.cls-3{fill:url(#GradientFill_1-3);}.cls-4{fill:url(#GradientFill_1-4);}.cls-5{fill:url(#GradientFill_1-5);}.cls-6{fill:url(#GradientFill_1-6);}.cls-7{fill:url(#GradientFill_1-7);}.cls-8{fill:url(#GradientFill_1-8);}.cls-9{fill:url(#GradientFill_1-9);}.cls-10{fill:url(#GradientFill_1-10);}.cls-11{fill:url(#GradientFill_1-11);}.cls-12{fill:url(#GradientFill_1-12);}</style><radialGradient id="GradientFill_1" cx="33.72" cy="9.21" r="9.26" gradientUnits="userSpaceOnUse"><stop offset="0" stop-color="#009640"/><stop offset="1" stop-color="#0b5e36"/></radialGradient><radialGradient id="GradientFill_1-2" cx="75.92" cy="9.21" r="9.85" xlink:href="#GradientFill_1"/><radialGradient id="GradientFill_1-3" cx="61.48" cy="9.21" r="9" xlink:href="#GradientFill_1"/><radialGradient id="GradientFill_1-4" cx="89.69" cy="9.21" r="9.12" xlink:href="#GradientFill_1"/><radialGradient id="GradientFill_1-5" cx="48.34" cy="9.21" r="9.26" xlink:href="#GradientFill_1"/><radialGradient id="GradientFill_1-6" cx="100.23" cy="1.84" r="1.88" xlink:href="#GradientFill_1"/><radialGradient id="GradientFill_1-7" cx="6.36" cy="4.06" r="3.94" xlink:href="#GradientFill_1"/><radialGradient id="GradientFill_1-8" cx="14.52" cy="13.39" r="5.2" xlink:href="#GradientFill_1"/><radialGradient id="GradientFill_1-9" cx="14.52" cy="4.07" r="3.95" xlink:href="#GradientFill_1"/><radialGradient id="GradientFill_1-10" cx="6.38" cy="13.39" r="5.21" xlink:href="#GradientFill_1"/><radialGradient id="GradientFill_1-11" cx="11.29" cy="4.11" r="3.09" xlink:href="#GradientFill_1"/><radialGradient id="GradientFill_1-12" cx="5.81" cy="11.62" r="1.91" xlink:href="#GradientFill_1"/></defs><title>logo</title><g id="Слой_2" data-name="Слой 2"><g id="_1" data-name="???? 1"><path class="cls-1" d="M37.29,0,25.85,0,23.79,14.8H21.73v4h2.72c2.22,0,3.29-1.38,3.75-3.54l1.48-11.5h3.13v15h4.49Z"/><path class="cls-2" d="M69.65,3.75h5.56v11.3H69.65V3.75ZM66,0V18.79H78.89V0Z"/><path class="cls-3" d="M56.29,0h7.52V3.75H58.14v15H53.91a.26.26,0,0,1-.26-.26V2.64A2.64,2.64,0,0,1,56.29,0Z"/><path class="cls-4" d="M84.28,0h7.81V3.75h-6v11.3h6v3.73H84.28a2.64,2.64,0,0,1-2.64-2.64V2.64A2.64,2.64,0,0,1,84.28,0Z"/><path class="cls-5" d="M42.67,0h7.65a2.61,2.61,0,0,1,.5,0V3.75h-6.3v4H49.3v3.71H44.52v3.62h6.3v3.69a2.62,2.62,0,0,1-.5,0H42.67A2.64,2.64,0,0,1,40,16.16V2.64A2.64,2.64,0,0,1,42.67,0Z"/><path class="cls-6" d="M96.67.67h1.13V0h-3V.67h1.13V3.75h.78V.67ZM101.86,0h-1l-.84,3-.86-3h-1V3.75H99V1.64h0l.61,2.12h.95l.59-2.11h0V3.75h.73Z"/><path class="cls-7" d="M.29,0h8V8.29H.13A46.08,46.08,0,0,1,0,3.49L.29,0ZM2.43,5.94H3.49V4.12h.95V5.94H5.51V1.87H5.06v.36h-.4V1.88H4.21v.36H3.77V1.87H3.32v.36H2.89V1.87H2.43Z"/><path class="cls-8" d="M8.25,8.3H16.4c-.52,5.12-4.11,8.52-8.14,10.38V8.3Zm2,5.39h1.05V11.87h.95v1.81h1.07V9.62H12.9V10h-.4V9.63h-.45V10h-.43V9.63h-.45V10h-.44V9.62h-.45Z"/><polygon class="cls-9" points="8.26 0 16.05 0 16.38 3.78 16.4 8.3 16.12 8.3 16.24 3.78 15.86 0.2 8.26 0.17 8.26 0"/><path class="cls-10" d="M.13,8.29H.21c.17,2.19,2.13,8.12,8,10.06l0,.34C.8,15.37.15,9.23.13,8.29Z"/><polygon class="cls-11" points="10.4 2.98 10.4 2.15 10.81 2.15 10.81 2.53 10.68 2.55 10.68 3.24 10.96 3.86 11.41 4.32 11.42 4.24 11.34 4.08 11.16 3.3 11.1 2.72 11.1 2.15 12.47 2.17 12.96 2.37 12.87 2.58 12.79 2.79 12.72 2.93 12.76 3.11 12.87 3.25 13.67 2.15 14.25 2.15 14.22 2.79 13.85 2.81 13.85 2.66 13.18 3.57 13.84 4.51 13.85 4.32 14.07 4.32 14.25 4.32 14.25 4.99 13.73 4.99 12.95 3.94 12.61 4.33 13.09 4.41 13.61 5.08 13.17 5.71 13.83 5.73 13.83 5.55 14.25 5.55 14.25 6.15 13.03 6.15 12.19 5.02 11.93 5.36 11.09 5.36 10.89 5.62 10.9 5.71 11.51 5.72 11.52 5.56 11.96 5.55 12.01 6.14 11.41 6.15 10.4 6.15 10.4 4.32 10.93 4.31 10.59 3.72 10.46 3.34 10.4 2.98"/><polygon class="cls-12" points="6.69 10.49 6.69 9.66 6.28 9.66 6.28 10.05 6.42 10.07 6.42 10.76 6.13 11.37 5.68 11.83 5.67 11.75 5.76 11.6 5.93 10.81 5.99 10.23 5.99 9.66 4.62 9.69 4.14 9.88 4.22 10.09 4.3 10.31 4.37 10.44 4.33 10.62 4.22 10.76 3.42 9.66 2.84 9.66 2.87 10.31 3.25 10.33 3.25 10.18 3.91 11.08 3.25 12.02 3.24 11.83 3.02 11.83 2.84 11.83 2.84 12.5 3.36 12.5 4.14 11.46 4.49 11.84 4 11.92 3.48 12.6 3.93 13.23 3.26 13.24 3.26 13.06 2.84 13.07 2.84 13.66 4.06 13.66 4.9 12.54 5.16 12.87 6 12.87 6.2 13.13 6.19 13.22 5.58 13.23 5.57 13.07 5.13 13.06 5.09 13.65 5.68 13.66 6.69 13.66 6.69 11.83 6.17 11.83 6.5 11.24 6.63 10.85 6.69 10.49"/></g></g></svg>