<svg xmlns="http://www.w3.org/2000/svg" width="108.043" height="104.721" viewBox="0 0 24.42 23.67" shape-rendering="geometricPrecision" text-rendering="geometricPrecision" image-rendering="optimizeQuality" fill-rule="evenodd" clip-rule="evenodd"><defs><style>.fil0{fill:#fefefe}</style></defs><g id="Слой_x0020_1"><g id="_2882105269408"><path class="fil0" d="M3.07 6.7l3.37.04c-.03.06-.05.05-.05.14v1.91h6.63c.24 0 .14-.71.14-.95 0-.33.07-.86-.05-1.1h3.34l.04-.04L9.76 0l-6.7 6.7zM0 11.84v9.78c.13.2.15.49.3.71.16.24.25.36.46.55.3.28.88.56 1.44.56h12.69c-.04-.12-1.02-.97-1.24-1.38H3.82c-1.06 0-2.43.2-2.43-.86v-4.63H12.5c.2 0 .37-.76.44-.94.16-.37.27-.6.47-.91.21-.32.38-.5.59-.79.16-.22.62-.55.69-.74H1.38v-.86c0-.46.35-.86.81-.86h15.6c.26 0 .37.09.52.18l1.62.06c-.22-.96-1.17-1.67-2.39-1.67H2.37c-.7 0-1.17.23-1.57.52-.62.45-.48.77-.81 1.29z"/><path class="fil0" d="M19.03 22.62c-2.3 0-4.39-1.92-4.39-4.15v-.48c0-2.22 2.08-4.15 4.34-4.15 2.37 0 4.39 1.97 4.39 4.34v.1c0 2.33-2.01 4.34-4.34 4.34zm5.39-3.67v-1.43c-.06-.09-.19-.81-.25-.99-.07-.23-.26-.67-.37-.87-.36-.62-.62-.93-1.11-1.42-.72-.72-2.13-1.44-3.57-1.44h-.33c-2.83 0-5.25 2.54-5.25 5.44 0 2.94 2.43 5.44 5.34 5.44h.19c1.44 0 2.87-.7 3.59-1.42.51-.5.73-.79 1.11-1.41.16-.26.27-.56.37-.87.05-.16.24-.97.27-1.02z"/><path class="fil0" d="M18.6 14.94v3.05h-1.91c-.25 0-.52.21-.52.48v.1c0 .28.25.52.52.52h2.39c.34 0 .62-.19.62-.52V14.8c0-.24-.24-.48-.48-.48h-.1c-.33 0-.52.28-.52.62z"/></g></g></svg>