<svg xmlns="http://www.w3.org/2000/svg" width="106.983" height="100.987" viewBox="0 0 24.08 22.73" shape-rendering="geometricPrecision" text-rendering="geometricPrecision" image-rendering="optimizeQuality" fill-rule="evenodd" clip-rule="evenodd"><defs><style>.fil0{fill:#fefefe}</style></defs><g id="Слой_x0020_1"><g id="_2882106690720"><path class="fil0" d="M6.75 2.98v.07c0 .19 2.44 2.63 2.63 2.63h.21c.19 0 1.85-1.66 1.85-1.85v-.07c0-.17-.26-.43-.43-.43h-.21c-.24 0-1.02.96-1.28 1.14-.54-.36-1.72-1.99-2.34-1.99h-.07c-.23 0-.36.26-.36.5zm13.42 5.26c-.07-.3-.14-.35-.36-.5h-.28c0 .12.06.07.21.07h.14l.28.43zM6.75 9.59c-.12-.17-.58-.47-.8-.69-.26-.26-.51-.63-.76-.8.34.51 1.01 1.2 1.56 1.49z"/><path class="fil0" d="M5.33 4.83c0-.89.64-2.03 1.12-2.5.39-.39 1.61-1.26 2.29-1.26h1.28c2.02 0 3.69 2.08 3.69 4.26 0 2.11-1.8 4.05-3.91 4.05h-.5c-2.37 0-3.98-1.91-3.98-4.33v-.21zM5.19 8.1c.25.17.51.54.76.8.22.22.68.53.8.69.62.33 1.42.78 2.34.78h.71c2.59 0 4.9-2.5 4.9-5.11 0-1.53-.66-2.76-1.44-3.53-.37-.37-.85-.93-1.36-1.13-.25-.1-1.86-.58-1.89-.6H8.87c-.23.15-.59.14-.89.24-.41.14-.53.24-.84.37-.72.31-.87.54-1.38 1.04-.68.68-1.44 2-1.44 3.32v.64c0 1.17.69 1.88.85 2.49zm-3.27.35v1.56c0 .23.17.71.43.71h.14c.24 0 .5-.13.5-.36V8.73h.43c.3 0 .57-.22.57-.5 0-.24-.13-.5-.36-.5H2.49c-.42 0-.57.29-.57.71zM.14 11.93L.07 12H0v.15L.07 12l.07-.07.07-.07.15-.07-.15.07z"/><path class="fil0" d="M.21 11.86l-.07.07-.07.07-.07.14v.36c.16.11.25.28.43.28h3.84c.32 0 .71-.13.71-.43v-.07c0-.26-.11-.34-.21-.5H.37l-.14.07zm.78 2.49c0 .29.39.43.71.43h1.92c.17 0 .36-.19.36-.36v-.28c0-.17-.19-.36-.36-.36h-1.7c-.55 0-.92 0-.92.57zm1.57 1.49c.12.11.36.22.36.43v1.56h13.14l-.07-9.09v9.02h-13v-1.49c0-.23-.24-.38-.43-.43zm14.49 1.92l6.04.07-.08-3.62v3.55h-5.96V8.74zm-14.78.99l-.28-.28v.14l.16.13zm2.2.14l-.07.07-.07.14-.07.14-.07.07.07-.07.07-.14.07-.14.07-.07.07-.14c-.31 0-.8-.05-.99.07.25 0 .8-.08.92.07zm17.19 0l1.35-.07v1l.07-1.07-1.5.01z"/><path class="fil0" d="M18.18 20.53v-.57c0-.65.63-1.14 1.35-1.14h.14c.72 0 1.35.51 1.35 1.14v.5c0 .65-.56 1.21-1.21 1.21h-.57c-.49 0-1.07-.67-1.07-1.14zm-13.14 0v-.28c0-.93.49-1.42 1.42-1.42h.28c.47 0 1.14.6 1.14 1.07v.78c0 .32-.65.99-1.07.99H6.1c-.49 0-1.07-.67-1.07-1.14zm17.97-.71h-.92l-.43-.92-.08-.14h1.5l-.07 1.07zm-13.92 0c-.23 0-.59-.83-.64-1.07h9.16l-.47 1.04-8.05.02zm-4.69-.85l-.07.14-.07.14-.07.07c-.05.21-.04.43-.28.43h-.36v-.92c.2-.13.68-.07.99-.07l-.07.14-.07.07zM17.04 8.74h2.27c.13.55 1.06 2.56 1.35 3.13.47.94.41.54 1.05 1.15.3.28.94.67 1.3.91v.28l.07 3.62-6.04-.07V8.74zm-1.07 0l.07 9.09H2.9v-1.56c0-.2-.23-.32-.36-.43-.66.01-.64.41-.64 1.07 0 .47-.1 1.22.07 1.56l.28.28h.28v1.56c0 .2.23.34.36.43h1.14c.31.64.26.72.76 1.23.56.56.7.4 1.23.76h.78c.81-.56 1.73-.52 2.06-1.92h8.17c.13 0 .66.91.91 1.15.67.68.84.43 1.37.76h.57c.42-.26.81-.13 1.33-.66.48-.49.48-.67.8-1.26.94 0 1.61.16 2.06-.36v-6.61c-.12-.09-.27-.45-.51-.69-.27-.27-.38-.31-.67-.53-.29-.22-1.16-.81-1.27-1.07-.23-.55-.48-1.18-.74-1.68-.11-.22-.67-1.45-.71-1.63l-.28-.43h-.14c-.15 0-.21.05-.21-.07h-2.49c-.64 0-2.06-.2-2.06.43 0 .57.42.57.99.57z"/></g></g></svg>