<svg xmlns="http://www.w3.org/2000/svg" viewBox="0 0 72.7 104.23"><defs><style>.cls-10,.cls-11,.cls-12,.cls-13,.cls-16,.cls-2,.cls-20,.cls-25,.cls-3,.cls-30,.cls-33,.cls-34,.cls-37,.cls-38,.cls-39,.cls-4,.cls-40,.cls-43,.cls-44,.cls-46,.cls-47,.cls-49,.cls-5,.cls-50,.cls-55,.cls-56,.cls-57,.cls-58,.cls-59,.cls-6,.cls-62,.cls-64,.cls-7{fill-rule:evenodd}.cls-2{fill:#f28d4d}.cls-3{fill:#f18842}.cls-4{fill:#c25618}.cls-5{fill:#c64a17}.cls-6{fill:#f39252}.cls-7{fill:#ed6e1c}.cls-10{fill:#b13017}.cls-11{fill:#f6ab78}.cls-12{fill:#15120d}.cls-13{fill:#ed6d0f}.cls-16{fill:#9b4016}.cls-20{fill:#ebb190}.cls-25{fill:#f2f3f4}.cls-30{fill:#13110c}.cls-33{fill:#f7b284}.cls-34{fill:#f7ba96}.cls-37{fill:#f8bd9d}.cls-38{fill:#f9f9fa}.cls-39{fill:#afc2d9}.cls-40{fill:#bbcde6}.cls-43{fill:#b4c9e1}.cls-44{fill:#f4af80}.cls-46{fill:#13693b}.cls-47{fill:#fff}.cls-49{fill:#e4630e}.cls-50{fill:#198646}.cls-55{fill:#168245}.cls-56{fill:#1b2f1b}.cls-57{fill:#005d30}.cls-58{fill:#1a2919}.cls-59{fill:#163d1f}.cls-62{fill:#d57f10}.cls-64{fill:#14381e}</style></defs><g id="Слой_2" data-name="Слой 2"><g id="_1" data-name="???? 1"><path d="M62.82 5.93l1.25.57a2.78 2.78 0 00-.86-1.67z" fill-rule="evenodd" fill="#e98242"/><path class="cls-2" d="M65.41 6c.39-.09.38-.22.78-.22h.45a1.83 1.83 0 011.24.78c0 .07.78 1.53.78.79 0-1.35-1.41-2.88-1.68-4-.5.14-1.51 2.04-1.57 2.65z"/><path class="cls-3" d="M70.57 7.95l.34-.22-1.4-2.34-.4 1.89h.45a1.17 1.17 0 011.01.67z"/><path class="cls-4" d="M61 10v.22a1 1 0 001 1h.56a2.18 2.18 0 001.23-.45 6.2 6.2 0 01-.11-.78v-.81c0-.55 1-2.69-.56-2.69h-.34C61.69 6.49 61 8.7 61 10zm3.29-.48V10c0 .74.8 1.23 1.57 1.23h.67c.53 0 .45-.22.9-.34 0-1.53.56-2.22.56-3v-.28a1.69 1.69 0 00-1.57-1.46c-1.11.01-2.13 2.16-2.13 3.37zm6.61 1.9V9.07l-.11-.45v.78c-.3-.47-.15-1.79-1.34-1.79h-.11c-1.05 0-1.46 1.76-1.46 2.91v.22a1.53 1.53 0 001.34 1.34c1.6.01 1.66-1.7 1.68-.66z"/><path class="cls-5" d="M30.36 11.87a1.62 1.62 0 01.56-.11l.57-.08 3.46.53c-.52-2.23-3.41-9.8-4.7-10.75-1.58 0-8.45 3.3-9.07 4.14A17.27 17.27 0 0124 4.7c2.09 0 5.45 5.45 6.36 7.17z"/><path class="cls-6" d="M63.51 12.65l.11.11a20.26 20.26 0 012.46-.45h.11c.57 0 .69.39 1.34.45V11.2a2.09 2.09 0 01-1.34.56h-.9a1.75 1.75 0 01-1.08-.54z"/><path class="cls-7" d="M36.18 13.88l1-1.34a1.62 1.62 0 00.12-.54l.06-3.14L37 6.61l-.59-.33.25 1.79.08.68zm3.58-.33l.78 1v-2.8a6.12 6.12 0 01.56-2.57l-.67-.45c-.74 1.08-.67 2.98-.67 4.82z"/><path d="M37.19 12.54l1.46.56 1.12.45c0-1.83-.08-3.73.67-4.81L37 6.61l.39 2.23L37.3 12a1.62 1.62 0 01-.11.54z" fill="#c74c17" fill-rule="evenodd"/><path class="cls-2" d="M59.81 13.32l.22.56c0-1.46 1.52-1.34 3-1.34l.78-1.46a2.94 2.94 0 01-1.46.67h-.45c-.52 0-.64-.34-1-.34s-1.07 1.35-1.09 1.91z"/><path d="M60 13.88l.22.34 3-.78.34-.67-.11-.11-.45.67v-.78c-1.44-.01-2.93-.13-3 1.33z" fill="#f7b082" fill-rule="evenodd"/><path class="cls-10" d="M30.24 1.46c1.3 1 4.19 8.52 4.7 10.75l.67 2L36 9.74a6.26 6.26 0 00-.31-2.46l-.13 2.91h-.22c-.06-3.47-.92-11.38-5.1-8.73z"/><path class="cls-5" d="M40.55 14.56l1.67 5h.12c-2.85 4.25 0 4.38 0 7.84l1 3.36.66-5.01.05-1.8-.61-8.51a11.42 11.42 0 01.73-4.11l-3.06-2.15a6.12 6.12 0 00-.56 2.57v2.8z"/><path class="cls-11" d="M63.62 12.76l-.34.67v.25l1.68.2h.45c1 0 1.49-.94 1.57-.22l.56-.9c-.66-.05-.77-.45-1.34-.45h-.11a20.26 20.26 0 00-2.47.45z"/><path class="cls-12" d="M30.36 14.89l-.56-1c-.74-.54-1.29-1.42-2.42-2.17a10.18 10.18 0 00-3.29-1.3c-.28 0-.33.36-.34.67a14 14 0 013.7 1.46c1.22.7 1.96 1.71 2.91 2.34z"/><path class="cls-6" d="M63.29 13.44l-3 .78a1.09 1.09 0 001 .56h.45c.52 0 .34-.21 1-.22a6.21 6.21 0 011.57-.45h.22a5.29 5.29 0 011.34.34l1.57.56-.45-.9v-.45c-.08-.72-.56.22-1.57.22H65l-1.68-.2z"/><path class="cls-11" d="M67 14.11l.45.9 1.12.45c.63 0 1.46.06 1.46-.56v-.34c0-.8-1.1-1.61-1.9-1.68z"/><path class="cls-7" d="M15.68 10.52c.18.24 4.89 1.66 5.63 2a29.72 29.72 0 014.9 2.83l.22-.22c-.64-2.4-6.67-4.72-9-5.93z"/><path class="cls-5" d="M17.47 9.18c2.29 1.21 8.32 3.54 9 5.93.31-.21.39-.45.9-.45H28c.51 0 1.65.76 2.83.76l-.48-.54c-.94-.63-1.69-1.64-2.91-2.35a14 14 0 00-3.69-1.46c0-.31.06-.67.34-.67a10.18 10.18 0 013.29 1.3c1.13.75 1.68 1.63 2.42 2.17v-.22h.56c0-2-3.72-5.78-5-6.92-1.41-1.29-2.49-.6-4.12.2a20.39 20.39 0 00-3.77 2.25z"/><path class="cls-13" d="M70.57 7.95l.22.67.11.45.56 3v1.57c0 .88-.85 2.2-1.13 3.12s-.59 2.41-.85 3.4c-.4 1.47-3.17 3.67-4.84 3.67h-.34c-1.15 0-1.23-1.68-2-1.68-1.25 0-1.67.67-2.35.67h-.34c-1.31 0-4.94-5.25-5.82-5.49 1.39 2.67 4.46 3.67 4.46 6.85 0 2-4.86 5.17-5 7.38l1 .46a59.67 59.67 0 013.52-5c1.61-2 2.9-2.8 5.78-1.28 0 2.39 0 5-.11 7.39A28.37 28.37 0 0161 38.29l.67 1c.11-.47 1.2-2.26 1.54-3.05a22.33 22.33 0 001.23-3.48c.55-2.12.09-6.81 1.17-8.13.3-.37 1.93-1.32 2.6-2A7.87 7.87 0 0070 19.72c.43-1.18.46-2.38 1-3.59a10.23 10.23 0 00.89-3.81v-1.24c0-1.06-.79-2.41-1-3.36z"/><path d="M58.69 17.24l.22.78c.42-.66.92-2.46 2.13-2.46.42 0 .21.07.61 0l1.07-1.06c-.67 0-.49.22-1 .22h-.45a1.09 1.09 0 01-1-.56l-.27-.28-.22-.56c-.72.88.31 2.99-1.09 3.92z" fill="#ec6907" fill-rule="evenodd"/><path d="M68.21 19.15c.63-.05.84-.81 1.12-1.23a5.74 5.74 0 01.17-1.63c.25-1.16-.39-.47-1-.83L67.43 15l-1.57-.56c.83.72 1.79 1.18 1.79 2.8.33.08.78.29.78.67v.56a1.14 1.14 0 01-.22.68z" fill="#ee7016" fill-rule="evenodd"/><path class="cls-10" d="M13 15.9L11.54 17c.75.71-.14 1.87-.22 2.91 1.78-1.19 3.56-3 6.5-3h.78a6.2 6.2 0 01.78.11v.34c.38-.6.37-1.57 1.34-1.57h.45c1.18 0 4.37 4 4.37 5.26l.94.33-.27-.89v.45A19 19 0 0125 18.83 12 12 0 0023.44 17c-.88-.88-2.66-2.55-4.28-2.55h-1.9c-1.5 0-3.44 1.28-4.38 1.9z"/><path class="cls-4" d="M54.66 15.68v.11c0 .93 1.13 1.68 2.13 1.68.41 0 1-.47 1-.67a2.25 2.25 0 00-1.9-1.9c-.54-.01-1.23.3-1.23.78z"/><path class="cls-11" d="M58.47 21.16c-.13-.48-.22-.2-.22-.56v-.45c0-.27.3-1.18.78-1.23l-.11-.9-.22-.78-.78-.11a1.2 1.2 0 01-1.23.67h-.11c-1.06 0-1.34-.52-1.9-.9a3 3 0 001.79 2.24c.98.63 1.4 1.62 2 2.02z"/><path class="cls-16" d="M31.7 18.36l1.9.45v.34l.11-.67-2.46-.34.45.22z"/><path fill="#c95617" fill-rule="evenodd" d="M28 18.47l-.11.12 2.13.11h.89l-1.56-.67-1.35.44z"/><path class="cls-16" d="M27.55 19.48A11.19 11.19 0 0130 18.7l-2.13-.11c-.22.27-.54.54-.32.89z"/><path class="cls-3" d="M30.91 18.7l1.35.11-.56-.45-.45-.22-1.9-.11 1.56.67z"/><path fill="#d65a14" fill-rule="evenodd" d="M32.26 18.81l1.34.34v-.34l-1.9-.45.56.45z"/><path class="cls-16" d="M38.84 19.36c.57 0 .73-.21 1.37-.21h1.46c-.07-.83-1.61-.26-2.44-.66z"/><path class="cls-5" d="M11.54 17L13 15.9c1.54-1 2.88-2.13 5.49-2.13A7 7 0 0123.27 16a17 17 0 011.64 2c.51.74.87 1.67 1.3 2.29L26 17.8v-1l.27-1.45a29.72 29.72 0 00-4.9-2.83c-.75-.32-5.45-1.74-5.63-2-1.42.95-6.64 6.16-7.09 7.64z"/><path d="M28 18.47l1.35-.47 1.9.11 2.46.34-.11.66-1.34-.34-1.34-.11H30a11.19 11.19 0 00-2.46.78l.11.11c1.71-.4 4.3-.74 5.82.22l.51.09.88-1.82-.72.73v-1.08h-.67l-3-.35A3.68 3.68 0 0028 18.47z" fill="#18130e" fill-rule="evenodd"/><path class="cls-20" d="M27.67 19.59c-.19.17-.56.35-.56.67s.55.56 1 .56.39-.13.78-.22l.22-.11a2.09 2.09 0 012.58-.78l1.49 1-.36-.71c1.08.25.82.83 1.46 1.57l-.78-1.79c-1.5-.93-4.12-.58-5.83-.19z"/><path class="cls-12" d="M13 15.9l-.13.44c.94-.62 2.88-1.9 4.38-1.9h1.9c1.63 0 3.41 1.67 4.28 2.55A12 12 0 0125 18.83a19 19 0 001.25 2.11v-.67c-.42-.61-.79-1.54-1.3-2.29A17 17 0 0023.27 16a7 7 0 00-4.79-2.26c-2.6.03-3.95 1.13-5.48 2.16z"/><path class="cls-20" d="M38.76 19.93l.34.78c.34-.25.63-.78 1.34-.78h.45a7 7 0 01.76.1l.13-.33a2 2 0 00-.9-.34 4.17 4.17 0 00-2.12.57z"/><path class="cls-4" d="M61.83 16.35c-.27-.2-.27-.45-.67-.45-.79 0-1.9 1.56-1.9 2.35 0 1.26 2.11 2.35 3.47 2.35H64c1.86 0 4.26-.72 4.26-2.35V18c0-.86-.78.05-.9-.89a2.7 2.7 0 00-.44-1.35 3 3 0 00-2.24-1.34h-.11c-1.27.02-2.65.82-2.74 1.93z"/><path d="M61.83 16.35c.09-1.1 1.47-1.9 2.69-1.9h.11a3 3 0 012.24 1.34 2.7 2.7 0 01.44 1.35c.12.94.9 0 .9.89v.22c0 1.64-2.4 2.35-4.26 2.35h-1.22c-1.36 0-3.47-1.09-3.47-2.35 0-.79 1.11-2.35 1.9-2.35.4 0 .4.25.67.45zm.9-1.79l-1.07 1.06h-.61c-1.21 0-1.71 1.81-2.13 2.46l.11.9a4.64 4.64 0 004.14 2 8.74 8.74 0 003.07-.29c1.35-.47 1.21-.88 2-1.39v-.11a1.14 1.14 0 00.22-.67v-.56c0-.38-.45-.59-.78-.67 0-1.62-1-2.08-1.79-2.8a5.29 5.29 0 00-1.34-.34h-.22a6.21 6.21 0 00-1.6.41z" fill="#19130f" fill-rule="evenodd"/><path d="M32.26 21.05l-.11-.34h-.23l.01.47.33-.13zm8.29.22l.11-.33-.34-.12v.45h.23z" fill="#e3e3e4" fill-rule="evenodd"/><path d="M30.36 21.27l.11.22v-.22h.34a1.61 1.61 0 01-.11-.56v-.56h-.45v.78c-.01.44-.04.07.11.34z" fill="#005a2b" fill-rule="evenodd"/><path d="M23.63 21c.85.23.22.78 1.79.78V21c-1.12-.26-2.48-4.3-4.7-4.81.55.82 1.13 1 1.66 2.15.43.96.8 1.85 1.25 2.66z" fill="#ca4d17" fill-rule="evenodd"/><path class="cls-25" d="M29.35 20.49c-.14.2-.22.2-.22.45v.34c0 .37.47.7.78.79l-.22-.56.11-1.23z"/><path d="M29.12 20.49h.22l.45-.22-.11 1.23.67-.22c-.15-.3-.11.09-.11-.34v-.78h.45v.56a1.61 1.61 0 00.11.56l.56.58.78-.14.22-.45V21h-.11l-.33.13v-.46h.22l-.57-.56.13-.44a2.09 2.09 0 00-2.58.82z" fill="#12110c" fill-rule="evenodd"/><path d="M32.15 21.72l.34.34.13-.09.09-.13-.11-.45v-.21l-.23-.18v.22z" fill="#004c24" fill-rule="evenodd"/><path d="M40.66 20.94l-.11.34v.56c-.12.17-.15.34-.45.34-.57 0-.45-.87-.45-1.46a1.07 1.07 0 00-.56.9.58.58 0 00.22.45v-.9h.11c0 2 1.46 1.56 1.46.34a.59.59 0 00-.22-.57z" fill="#2b8143" fill-rule="evenodd"/><path d="M30.47 21.5a1.43 1.43 0 001.12.78h.22a1.62 1.62 0 00.56-.11l.11-.11-.34-.34-.78.14-.56-.58h-.34z" fill="#1f8c37" fill-rule="evenodd"/><path class="cls-30" d="M32.15 20.71l.11.34h.11l.22.12v.21l.11.45.32-.11.13.47-1 .3.24-.32a1.62 1.62 0 01-.56.11h-.22a1.43 1.43 0 01-1.12-.78l-.11-.22-.67.22.22.56c-.31-.09-.78-.42-.78-.79v-.34c0-.25.09-.25.22-.45h-.22l-.22.11a2 2 0 00-.34.9v.34c0 .67 1.57 1.34 2.46 1.34h.34a4.22 4.22 0 002-.78l.52-.5 1 .63.09-.13-.67-.78c-.64-.73-.37-1.32-1.46-1.57l.37.65-1.49-1-.13.44z"/><path class="cls-11" d="M63.17 20.94l1.06.19-.5.37c.79.18.61 0 .56.67.46 0 .25.11.67.11.82 0 .37-.38 1-.45v.45c1.43-.76 1.62-1.54 2.49-2.82l-.25-.2c-.76.51-.62.92-2 1.39a8.74 8.74 0 01-3.03.29z"/><path fill="#775037" fill-rule="evenodd" d="M38.64 22.06l-.43.58.43-.36v-.22z"/><path fill="#ecebec" fill-rule="evenodd" d="M32.71 21.83l-.1.13-.13.1-.11.11-.24.32 1.03-.3-.13-.46-.32.1z"/><path class="cls-20" d="M33.38 22.39a.61.61 0 00.34.12l1 .11h.47l-.25-.2-.09.13-1-.63z"/><path class="cls-33" d="M58.47 21.16a3.76 3.76 0 001.68.69l2.35-.24c.48-.06.62 1.12 1.79 1.12a3.65 3.65 0 001.71-.45v-.45c-.64.07-.19.45-1 .45-.42 0-.21-.07-.67-.11.05-.65.23-.49-.56-.67l.5-.37-1.06-.19a4.64 4.64 0 01-4.14-2c-.48.05-.78 1-.78 1.23v.45c-.04.38.05.07.18.54z"/><path class="cls-5" d="M11.31 19.93l-.45 3.13c2.16-1.44 5-4.7 8.4-4.7l.11-1V17a6.2 6.2 0 00-.78-.11h-.78c-2.94.02-4.72 1.85-6.5 3.04z"/><path class="cls-6" d="M70.9 11.42a1.51 1.51 0 01-1.57 1h-.45c-.41 0-.39-.13-.78-.22v.67c.8.07 1.9.88 1.9 1.68v.34c0 .62-.82.56-1.46.56.56.36 1.2-.33 1 .83a5.74 5.74 0 00-.17 1.63c-.28.42-.49 1.18-1.12 1.23v.11l.25.2c-.87 1.28-1.05 2.06-2.49 2.82a3.65 3.65 0 01-1.68.45c-1.17 0-1.31-1.18-1.79-1.12l-2.35.24a3.76 3.76 0 01-1.68-.69c-.6-.4-1-1.39-2-2a3 3 0 01-1.79-2.24 2 2 0 01-.34-.9v-.34c0-.65.51-.85.78-1.23l-.16.06-.55-1.24.13-.06c-.67.18-1 1.27-1 2.13v.78a4.5 4.5 0 00.22 1.23c.88.24 4.51 5.49 5.82 5.49h.34c.69 0 1.1-.67 2.35-.67.79 0 .87 1.68 2 1.68h.34c1.67 0 4.44-2.2 4.84-3.67.27-1 .55-2.41.85-3.4s1.13-2.24 1.13-3.12v-1.56l-.56-3z"/><path class="cls-34" d="M24.64 24.41c.84-.22.78-1.51.78-2.57-1.58 0-.94-.56-1.79-.78l-3.25-4.48a1.3 1.3 0 00-.45 1.12V19c.01 3.12 2.8 4.13 4.71 5.41z"/><path class="cls-7" d="M10.87 23.06L10.64 25a16.19 16.19 0 011.48-2 11 11 0 012-1.44 19.54 19.54 0 012.38-1.1c.57-.22 2.62-.59 2.85-.73l-.11-1.34c-3.38-.03-6.24 3.23-8.37 4.67z"/><path d="M34.17 25.92l3.13 2.85v.29L40.44 26c-.75 0-1.21-.34-2.13-.34h-2.24z" fill="#9e2915" fill-rule="evenodd"/><path d="M27.67 26.2v.22h.67c.43 0 .46-.06.56-.37z" fill="#23170f" fill-rule="evenodd"/><path class="cls-7" d="M21.73 23.4l-1-1c-1.22.64-4.24 2.86-4.37 4.37.67-.35 1.74-1.31 2.53-1.84s2.52-1.25 2.84-1.53z"/><path class="cls-6" d="M28.9 26.06c-.1.3-.13.37-.56.37h-.67v-.23l1.23-.14zm9.75-4v.22l-.43.36.43-.58zm-5.15-2.24l.78 1.79.67.78.25.2h-.47l-1-.11a.61.61 0 01-.34-.12 4.22 4.22 0 01-2 .78H31c-.89 0-2.46-.68-2.46-1.34v-.3a2 2 0 01.34-.9c-.39.09-.38.22-.78.22s-1-.12-1-.56.37-.5.56-.67l-.11-.11c-.22-.36.1-.62.34-.9l.11-.11a3.68 3.68 0 012.46-1.12l3 .35h.67v1.12l.72-.73L34 19.9l-.51-.09zm-3.14-7.95a13.74 13.74 0 01.34 1.57c0 .38-.14.3-.34.22h-.56v.22l.56 1 .48.54c-1.17 0-2.32-.76-2.83-.76h-.67c-.51 0-.58.24-.9.45l-.22.22-.27 1.45v1l.22 2.46v.22l.27.89-.9-.35h-.11v.78c0 1.07.05 2.35-.78 2.57v.11l-.11.9V28c.39.45.19 1.14 1.05 1.86a7.55 7.55 0 002.15.87c2.1.85 2.1 1.84 3.29 2.64v-1.8l-.74-2.88h.18c-.51-.76-1.28-2-2.46-1.68.07-.25 0-.34.34-.34h.45c.26 0 .7.43.9.56a5 5 0 013.58-1.46l.88-1.34.19.15-.51 1 3.47-.32h.56a9.46 9.46 0 012.63.4l-.9-1 .17-.17L41 25.75l.34-.22-.93-2.64h.15A1.62 1.62 0 0140 23h-.22c-1.18 0-.6-1.1-1.12-.9l.45-1.34-.34-.78h-.45v-1.73h.21l.12.67.23-1.05 1.9.27c-.52-1-.36-1.76-.74-2.85a7.65 7.65 0 00-1.39-2.19l-1.46-.56-1 1.34-.4 1.19-.17-.07v-.78l-.67-2-3.46-.53-.57.08a1.62 1.62 0 00-.56.1z"/><path class="cls-5" d="M10.64 25l-.22 2.91v2.13l.14 1.9c.55-.4 2.69-4.67 4.14-4.7v.34c-1.7.42-4.29 7.62-4.51 10.26.1.33 1.1-1.81 1.41-2.29a27.27 27.27 0 011.78-2.37c.51-.62 3.8-4.26 3.87-4.53l-2.91 2c1-1.54 6.38-6.27 8.29-6.72l-.9-.56c-.32.28-2.2 1.09-2.85 1.52s-1.88 1.52-2.53 1.87c.13-1.51 3.15-3.72 4.37-4.37l-1.34-2.69c-.23.15-2.28.51-2.85.73a19.54 19.54 0 00-2.38 1.1 11 11 0 00-2 1.44A16.19 16.19 0 0010.64 25z"/><path class="cls-12" d="M19.38 17.35l-.11 1 .11 1.34 1.34 2.69 1 1 .9.56.9.45a9 9 0 00-3.81 2.69l-1.43 2.11.2.13c.61-.41 2.05-1.9 2.93-2.56.59-.45 3.22-1.57 3.23-2.25v-.11c-1.92-1.28-4.7-2.28-4.7-5.37v-1.34a1.3 1.3 0 01.45-1.12L23.63 21c-.45-.86-.83-1.75-1.25-2.67-.53-1.15-1.11-1.32-1.66-2.15 2.23.52 3.58 4.55 4.7 4.81h.11c0-1.24-3.19-5.26-4.37-5.26h-.45c-.97.06-.95 1.02-1.33 1.62z"/><path class="cls-10" d="M19.71 27.1l-2.46 1.57c-.07.26-3.37 3.9-3.87 4.53a27.27 27.27 0 00-1.78 2.37c-.31.48-1.31 2.61-1.41 2.29l-.34 2.8c2.41-2.77 3.89-3 6.27-5-.13-.27 6.28-8.8 7.28-9.07l1.12-1.12.11-.9c0 .69-2.64 1.81-3.23 2.25-.88.66-2.32 2.15-2.93 2.56l-.2-.13z"/><path class="cls-34" d="M41 25.75a9.64 9.64 0 01-3.14 3.47 1.61 1.61 0 001.23.78h.11c1 0 2.58-2.28 2.58-3.36v-.34a1.84 1.84 0 00-.45-.78z"/><path class="cls-37" d="M29.68 27.21a6.86 6.86 0 005.15 2.91 3.18 3.18 0 002.13-1l-.09.09-3.61-3.45a5 5 0 00-3.58 1.45z"/><path class="cls-7" d="M17.25 28.66l2.46-1.57a9 9 0 013.81-2.69l-.9-.45c-1.91.44-7.26 5.18-8.29 6.72z"/><path class="cls-25" d="M39.2 30.9l.34-.56h-.34v.56z"/><path class="cls-38" d="M31.48 31.35l.75-1.3-1.42-.94c.01.89.12 1.89.67 2.24z"/><path class="cls-39" d="M48.61 32.58A2.5 2.5 0 0150 32h.78a24.51 24.51 0 013.6 1.22c1.56.55 2.21.59 3.12 1.81s3.75 4.52 4 5.71c.51-.82-3.37-5.3-3.92-6-.79-1.07-5.35-3-7.28-3h-.11a6.22 6.22 0 00-2.8.9z"/><path class="cls-40" d="M22.51 35.38l.68-2.01-1-.91-.12-.04-.88 2.37 1.32.59z"/><path d="M40.66 34.93l.2-.22.24.78h.26l.08-2.13a.89.89 0 00-.56.9v.34h-.22z" fill="#24643b" fill-rule="evenodd"/><path class="cls-5" d="M16.13 35.6l4.14-.9c.07-.89.86-3 1.79-3l-.33-.13-.2-.05 1.88-5c-1 .28-7.41 8.82-7.28 9.08z"/><path class="cls-37" d="M31 31.57v1.79a4 4 0 003.58 2.35H36c1.44 0 1.6-1 1.94-2.2a21.11 21.11 0 001-3.29l-.09.12-1.48-1a2.46 2.46 0 01-2.13 1.34h-.11a7.55 7.55 0 01-2.46-.45c-.23.66-.8 1.9-1.67 1.34z"/><path d="M22.51 35.38c.71.61 1.8 1.23 2.65 1.94a21.38 21.38 0 012.15 2.44c.76 1 3.45 4.49 3.7 5.54l4.92-.86v.12c-.16-.22-4.08-2.68-5.07-3.67-1.68-1.66-2.32-3.24-2.32-6.52a3.06 3.06 0 00-.45 1.68v.9c0 .44 1.17 2-.53 1A5.35 5.35 0 0126 36.49c-1.24-1.68-.65-2-2.81-3.12z" fill="#fdfeff" fill-rule="evenodd"/><path class="cls-30" d="M39.2 30.34h.34l-.34.56v-.56zm-8.4-1.23l1.42.94-.75 1.3c-.54-.36-.65-1.38-.67-2.24zm5.26-3.49h2.24c.91 0 1.38.32 2.13.34l-3.09 3.08v-.29l-3.13-2.85 1.89-.29zm4.48-4.35h-.22v-.45l.34.11a.59.59 0 01.22.56c0 1.23-1.46 1.69-1.46-.34h-.11v.9a.58.58 0 01-.22-.45 1.07 1.07 0 01.56-.9c0 .58-.12 1.46.45 1.46.3 0 .33-.16.45-.34v-.56zm-1.32-2.79c.83.4 2.37-.17 2.44.66h-1.45c-.64 0-.8.18-1.37.21l.39-.87zm-.48 1.44a4.17 4.17 0 012.13-.56 2 2 0 01.9.34l-.13.33a7 7 0 00-.76-.1h-.45c-.72 0-1 .53-1.34.78l-.45 1.34c.52-.2-.06.9 1.12.9H40a1.62 1.62 0 00.56-.11h-.15l.93 2.64a1.84 1.84 0 01.45.78v.34c0 1.07-1.57 3.36-2.58 3.36h-.11a1.61 1.61 0 01-1.23-.78A9.64 9.64 0 0041 25.75l-1.24-1.35-.17.17.9 1a9.46 9.46 0 00-2.63-.4h-.56l-3.47.32.51-1-.19-.15-.88 1.34 3.61 3.45.09-.09a3.18 3.18 0 01-2.13 1 6.86 6.86 0 01-5.15-2.91c-.2-.13-.64-.56-.9-.56h-.45c-.31 0-.27.09-.34.34 1.19-.28 2 .92 2.46 1.68h-.18l.72 2.98c.84.56 1.41-.68 1.57-1.34a7.55 7.55 0 002.46.45h.11a2.46 2.46 0 002.13-1.34l1.48 1 .09-.12a21.11 21.11 0 01-1 3.29c-.34 1.16-.51 2.2-1.94 2.2h-1.29A4 4 0 0131 33.37c-1.19-.8-1.2-1.79-3.29-2.64a7.55 7.55 0 01-2.15-.87c-.86-.72-.66-1.41-1.05-1.86-1.15 2.4 3.51 3.35 4.73 4.56 1.6 1.58 2.42 4.51 5.12 4.51h.67c3.12 0 3-2.26 3.82-4.69s2.27-2.57 3.46-5c0-3.46-2.85-3.59 0-7.84h-.12l-1.67-5-.78-1-1.12-.45a7.65 7.65 0 011.38 2.2c.38 1.08.21 1.86.74 2.85l-1.9-.27-.23 1.05-.12-.67h-.21v1.68z"/><path class="cls-43" d="M48.39 34.48l-.92-1-.09.1c.06-.1.07-.22.22-.22 1.91 0 3.57 1.46 4.73 2.22s2.67 3.26 3.34 3.72c-.54-2.3-4.89-6.3-7.95-6.3h-.56c-.41 0-.39.13-.8.25z"/><path class="cls-6" d="M54.21 32c3.06.71 5.49 3.74 6.83 6.27a28.37 28.37 0 002.36-5.15c.14-2.37.11-5 .11-7.39-2.87-1.5-4.16-.73-5.78 1.27a59.67 59.67 0 00-3.52 5z"/><path class="cls-44" d="M44 38.63h.34c1.2-.8 1 .37 1.46-1.46a3.89 3.89 0 00-1.8 1.46z"/><path d="M41.61 104.23h-1.09v-5.48l.11-8.4 1-16.35-1.06.28c-.23.4-.3.85-1 .85h-.37c-.6 0-.47-.34-1.34-.34v4.48c0 3-.21 1.83-1 3.71a71.87 71.87 0 00-2.48 6.81v8.06l.45 6.37h-.22L34 90.36h.16c-.33.37-1.79 4.37-2.11 5.17-.85 2.11-.28 4.07-.24 6.59 0 .67.06 1.39.12 2.12h-.66c-.16-1.88-.25-3.8-.25-6-.07.05-1.52 3-3 6H26.8q.51-1.08 1.05-2.15c1.7-3.38 3.24-7 4.73-10.5.76-1.79 1.49-3.57 2.26-5.35.38-.88.71-1.78 1.15-2.66a17.83 17.83 0 001.42-2.39v-.11l-.14-6.16-2.27.5v3.29c0 2.3.15 2.07 1 3.36-1.2-.32-1.34-2.36-1.34-3.81v-2.91h-.9l-1.9-.28c.19.22.44.29.44.61v1a1.77 1.77 0 01-1.12 1.68c0 2.51-.72 10.41-2.46 10.41h-1.84l-2.35-.22c-.62-.54-2.1-.53-2.13-1.9h-.22c0 1.63-5.06 14.32-5.92 16.47l-.44 1.09h-1l.7-1.83c1.26-3.33 2.39-6.57 3.66-9.88.63-1.64 1.2-3.33 1.75-5 .75-2.26.57-3.24.57-6.14-1.13.83-3 8.34-4.21 10.46-1.62 2.77-4.28 6-8.56 6-4.79 0-7.62-4-7.62-9v-1.38a27 27 0 012.13-8.62A8.66 8.66 0 011 73.9c0-2.77 1.8-4.83 1.8-6.9v-1c0-2.2-2.66-3.51-2.8-5.15 1.16.31 3.28 2.33 4.06 3.22 1.41 1.64 1.6 3.35 2.55 4.73h-.15l.81-2.8.23.07c0 3.46 1.9 5 1.9 8.29v.9c0 2.08-2 3.9-3.29 4.77-1.11.71-1.11 1.1-1.28 2.72a36.28 36.28 0 00-.35 3.68c0 2.93.83 6.16 3.7 6.16h.45c6.9 0 6.74-18.75 14.23-20.49l-.17-.05 1.23-4.11a13 13 0 01-2.86-3.57c-.58-1.36-.32-.89-1.68-1.57-1.71-.85-1-.37-1-1.68-2.33-1.56-5.92-3.72-7.81-5.62C8.9 53.84 9 53.67 8.13 51.21a19.9 19.9 0 01-1.3-5.3c0-1 1.26-2.85 1.73-3.54.71-1 .56-3 .75-4.51.11-1 1-3.71.72-4.2A15.84 15.84 0 019.41 29c0-3.12.46-9.1 1.46-11a11.06 11.06 0 00-1.75.72c-.46.25-1.28 1.19-1.28.51v-.45c0-3 7.88-10.12 10.2-11.53a26 26 0 003-2.47 24 24 0 013.28-2.09C25.74 2 30.46 0 32.37 0c1.37 0 2.78 2.43 3.25 3.47s.31 1.73 1.19 2.17a20.85 20.85 0 012.12 1.23A33.36 33.36 0 0143 9.49c2.6 2.25 1.11 1.61 1.43 5.07l.87 10.07-.09.57c0 3.21-1 4.65-1.57 7.05 2 .17 1.12 1.41 3.09.07A7.89 7.89 0 0150 31h1.46c.61 0 .6.21 1.23.22.79-3.38 4.82-5.16 4.82-7.5v-.22c0-2.34-4.7-3.59-4.7-7.61 0-1.54 1.1-3.48 2.35-3.58l.53 2.06h.14a2.11 2.11 0 012.35 2.35c.83-.07.73-2.88 1-3.62.56-1.78 1.16-1.25 1.16-3.21a5.84 5.84 0 011.09-3.17c1.23-1.44.91-.29 1.49-2.77 1 .08 1.35 1.93 1.79 2.58l-.14-.08 2.24-4h.31l1.81 3.14c0-3.57 3.85 3.13 3.85 6.47v1.04a8.56 8.56 0 01-1.12 3.47c-.47 1.13-.4 2.62-.77 3.71-1.12 3.27-2.48 2.93-4.4 4.67-.85.77-.44 2.57-.55 4a32.11 32.11 0 01-.62 3.85 21 21 0 01-1.11 3.48c-.35.87-1.38 2.41-1.51 3 .48 0 .67.28.67.78v.34c0 3.27-4 6.58-5.9 8.21-1.36 1.14-.47.64-2.26 1.32a19.37 19.37 0 00-1.95 1.53 20.78 20.78 0 01-4.34 2.72 8.29 8.29 0 01-1.9 6c-1.07 1.61-2 3.33-3 4.93a5.15 5.15 0 01.98 3.3v.78c0 2-1.23 3.48-2 4.77-.35.61.41 4.63.52 5.74.26 2.63-1.8 7.53-1.8 11.33 0 4.37-.09 8.78-.17 13.2zm-.05-18.13A26.79 26.79 0 0043 80.46c.08-.81-.74-4.44-.74-6.23-.58.31-.34 1.95-.34 2.8 0 1.14-.12 2-.11 3 0 1.91-.22 4.12-.22 6zm-19.15-9c0 2.54 0 6.39.2 8.86s4 2.44 6.52 2.44c.31-1.31 1.14-2.59 1.34-4.37a37.26 37.26 0 00.45-5.15l-2.45.41-1.24-.07c-2.61 0-3.46-1.13-4.82-2.13zm.11-.67a4.63 4.63 0 003.25 2l-.45-2.69-2.8.67zm8.18 2.35c-.24-.51 1.12-.92 1.12-2.91l-.89.13-.39-.52c-.06 1.06-.16 2.33-1.06 2.4l.27-.66-.95-.34.14 2h1a6.21 6.21 0 00.78-.11zm-2-2.13c.71.06 1.13.75 1.24-.11s.08-1 .56-1.46L28.56 75l.11 1.68zm-3.36-3.81a20.38 20.38 0 00.57 3.46c.3 1.42-.14 2.47 1.45 2.47l-.69-5.93zm2.25-.34l1 6.51h.16L28 72.78v-.34l-.44.11zm-.68.23a25.41 25.41 0 01.45 3.13c0 .53 0 3 .56 3h.34l-.94-6.15zm10.31-2.33l1.45-.16v.35L35 71.3v.58h.34l3.14-.32c-.16.56-2.16 1-2.91 1h-.45l.13 1.12 3.9-.55.39-2.8-.06-2.14h-.67c-2.21 0-3.7 0-3.7 2.24h2.13zm3.58 3.22c1.09-.25 1.42-.42 1.72-1.53a12.27 12.27 0 00.41-2.84v-.67a6.91 6.91 0 00-.45-1.9 3.3 3.3 0 01-1 .22h-.34v3.58l-.34 3.13zM27.78 72l.73 2.79h2a7.21 7.21 0 01-.9-3.13v-.78a4.49 4.49 0 01.22-1.23l-2.11.62-1.91-1.31h-.21l-1 3.36.14-.2 2.74-.3c-.93 0-2.28-.06-2.35.78a1.62 1.62 0 00.56.11h1.12a3 3 0 001.12-.45l-.15-.26zm3 .1l.44-3c-.83.22-1.17.35-1.17 1.46V71c0 1.3.55 4.35 1.46 4.59a12.1 12.1 0 01-.72-3.48zm-6.44-.44c0-1.84.9-2.21 1.12-3l-.46-.25c-.64.43-1.12 2.24-1.12 3.36v.45c0 1 .52 2.53.34 2.91a1.61 1.61 0 00.56.11h.11c.71 0-.56-1.52-.56-2.69v-.9zm8.26.34c-.21-1.21.84-3.1 1-3.81l-1.89.71-.41 3.65.2 2.24H33L32.6 72zm1.34-.34a4.73 4.73 0 011-3.17 9.88 9.88 0 013.28-.75h1.12v-.56h-2.26c-.15 0-1.54.39-1.78.46-.83.25-.84.07-1.27.86a10.24 10.24 0 00-.65 3.61v.34l.34 2.35h1.34a3.9 3.9 0 002-.45l-2.58.22a6.54 6.54 0 01-.56-2.8v-.11zm6-5l.36 2.68-.05 2.25a18 18 0 01-.67 2.91c.88-.1.9-3.3.9-4.37v-3.51zM38 66.39c-.27 0-.41.21-.56.34h2v-.34zm2.92.36l2.24-.34.35 2.59v1.24c0 .61-.39 1.46-.45 2.13a6.13 6.13 0 001-3.69v-.11a5.54 5.54 0 00-.67-2.57 3.12 3.12 0 01-2 .56h-.45v.25zm-16.69-2.6l-.12-.22-1.33.14 1.79 1.31a2.33 2.33 0 001.34.45h.45a1.23 1.23 0 001-.56l-3.14-1.12zM4.82 79.38l.3-.47v.92c1.07-.29 3.25-2.93 3.25-4.37v-1.34c0-1.08-1-6-1.34-6.27l-.14 1.9v.79l.24 2c-.33-.23-1.87-7.34-4.95-9.4.21.78 1.46 1.61 1.46 3.36v.34C3.7 69.82 2 71.08 2 74a9.27 9.27 0 001.57 4.37L4 77.9l-1 2.6c-.57 2.44-1.34 4.21-1.34 7.39V89c.02 4 2.63 8 6.63 8h1c3.81 0 6.93-4.88 8.17-7.73.8-1.85 1.37-3.91 2.15-5.8a9.31 9.31 0 011.48-2.55c.65-.73.41-2.18.41-3.51 0-1.61.87-1.41 1.9-1.9l-.52-3c-2.66 1.43-3.62 3.43-4.81 6.42a81.3 81.3 0 00-2.85 8.35c-.55.63-1.22 2.47-2.15 3.56-1.41 1.66-2.14 1.43-3.23 2.37l-1.23.14h-.68c-2.85 0-4.14-3-4.14-6v-1.47h-.14l1.15-6.47zM.56 61.58a1.85 1.85 0 001.12 1l-1.12-1zm40.66 3.81c1.57 0 2.05-1.32 2.68-2.36a35 35 0 012.1-2.92 12.53 12.53 0 002.26-7.82v-.56l-.06-.18-2.5 1.07c-1.63 1.88-2.73 3.74-4.62 5.57a28.49 28.49 0 01-5.91 4.17c-1.27.67-2.35 1.24-3.74 1.86-1.54.69-1.75 2.08-3.66 1.16l.07.1-1.3.8-2.46-.34c-.49-.43-.85-.57-1.37-1.09-.31-.32-.78-1.11-1.2-1.15.07.87 2.63 3.72 3.36 3.92A10.38 10.38 0 0028 69.53c.54 0 7.22-2.31 8.19-2.67 1.55-.59 4.69-4.13 6.26-4.49l-4 3.42.05.11 2.68-.51zm7.63-11.85l4.31-2.82-.07-.1c-.49 0-2 .59-2.85.74-1.85.33-1.41-.08-1.4 2.19zm5.48-3.93a5.89 5.89 0 003.81-2.13l-.06-.11-3.75 2.23zm-27.9-1.47l.47-.42c-.79-1.17-8-9.21-8.76-9.21-1.19 0-5.38 1-5.94 1.46 1.4-.12 3.72-1.23 5.38-1.23h.11a.59.59 0 01.56.22l-2.91 1.23a10.75 10.75 0 00-5.88 3c-2 2.56-1.58 2.83-.55 6.25.81 2.56 1.18 4.16 3.09 5.7.69.54 4.58 3.48 5.2 3.53L19.15 55h.33L18 59.25l.4.21.6.54 2.28-5.32 1-1.55.17.11-1.27 3.57-1.72 4.69v.12l3.48 1.33c.56-2.35 1.86-5.62 2.6-7.83a6.5 6.5 0 012.11-3 16.11 16.11 0 002.49-2.66l-.34-.22-1.26-1.32-.09.09a32.69 32.69 0 00-2.88 2.62c-1 .95-.91-.08-.32-.89.41-.56.83-1 1.19-1.5zm-13.32-9.06c5.09-1.19 4.91-2.33 8.6 1.37a31.27 31.27 0 015.51 6.8c.45-.11.56-.34 1-.34h.34c.84 0 1.92 1.64 2.24 2.24l9.76-1.44-.18-.16.75-3.45c-1.72 0-1.45.51-2 1.76-.26.63-.93 2-1.63 2.06-.26-.55-.77-3-1.34-3h-.11l-5.14.85c-.54-2-7.76-10.25-10.2-10.25h-1.33a5 5 0 00-3.6 1.33c-.59.43-2.46 1.66-2.67 2.26zm31.25-.45c1.2-.8 1 .37 1.46-1.46A3.89 3.89 0 0044 38.63c-1.25 1.86-1.1 2.77-1.86 5a10.9 10.9 0 00-.7 2.66c-.2 1.75.1 1.72-1.21 2.15a26.61 26.61 0 01-5.44 1.28c-1.84.25-4.31.4-5.12 1.6a9.66 9.66 0 00-1.88 1.82c-1.13 1.17-.74.87-1.22 2.48-.55 1.83-1.29 3.81-1.72 5.67l-.77 2a25.39 25.39 0 002.92 1.1c1.65.6 1.37.51 2.91-.14A42.29 42.29 0 0035 61.53c3.66-2.19 5.58-4.47 8.42-7.37 1.45-1.48 2-2.94 4.66-3.29 3.74-.49 3.3-.42 6-1.84 2.38-1.24 8.18-4.28 8.18-7.5l.12-1a5.49 5.49 0 01-1.58 1.34v.34c-1.17 1.69-1.42 2.68-3.44 3.73A11.06 11.06 0 0154.91 47c-.44.11-1 .19-1.47.32-.68.17-.68.43-1.13.55.55-2.35 7.84-.74 7.84-7.17v-.56l-1.31.86.08.51-2-.34c-1.42-.9-6.81 1.9-8.51 1.9h-.22c-1.62 0-1.52-5.56-3.58-4.25h-.11l-.11-.22zm-2.35 2c1.07-1.24 1.48-4.14 4.59-4.14L46 38.4c1.5 2 .92 2.08 1.91 4.15l.89-.13A26.48 26.48 0 0047 36.8c-.68-1.53-1.52-3.66-3.73-3.66-.16.69-1.7 3.35-1.68 3.47l.45 4zm-.9-5.15h.26l.08-2.13a.89.89 0 00-.56.9v.34h-.22v.34c0 1.54.11 3.55 0 5a22.17 22.17 0 01-.9 4.14l1.67-.37a8.11 8.11 0 00.35-2.54l-.44-4.48H41l.11-1.23zm-17.92-2.11l-1-.91h-.12l-.88 2.36 1.33.59c.71.61 1.8 1.23 2.65 1.94a21.38 21.38 0 012.15 2.44c.76 1 3.45 4.49 3.7 5.54l4.92-.86v.12c-.16-.22-4.08-2.68-5.07-3.67-1.68-1.66-2.32-3.24-2.32-6.52a3.06 3.06 0 00-.45 1.68v.9c0 .44 1.17 2-.53 1A5.35 5.35 0 0126 36.49c-1.24-1.68-.65-2-2.81-3.12zm38.31 7.39c.51-.82-3.37-5.3-3.92-6-.79-1.07-5.35-3-7.28-3h-.11a6.22 6.22 0 00-2.8.9h1.23c2.1 0 3.6 1.52 4.68 2.6.09.09 4 4.75 2.38 4.11C55.13 37 50.78 33 47.72 33h-.56c-.41 0-.39.13-.8.25l2 1.2-1.79-.56-1.11-.47c0 .23 1 1.43 1.26 1.89a12.52 12.52 0 01.93 2.09 29.25 29.25 0 011.27 4.89l.78-.22c2-.47 3.85-1.68 6.38-1.68.87 0 2.1.49 2.63.17s1-1.16 1.85-1.18l.56 1.88.34-.53zm-6.84-25.08v.11c0 .93 1.13 1.68 2.13 1.68.41 0 1-.47 1-.67a2.25 2.25 0 00-1.9-1.9c-.54 0-1.23.31-1.23.78zm9.63-6.16V10c0 .74.8 1.23 1.57 1.23h.67c.53 0 .45-.22.9-.34 0-1.53.56-2.22.56-3v-.28a1.69 1.69 0 00-1.57-1.46c-1.11 0-2.13 2.15-2.13 3.36zM61 10v.22a1 1 0 001 1h.56a2.18 2.18 0 001.23-.45 6.2 6.2 0 01-.11-.78v-.81c0-.55 1-2.69-.56-2.69h-.34C61.69 6.49 61 8.7 61 10zm9.9-2.27l-1.39-2.34-.4 1.89h.45a1.17 1.17 0 011 .67l.22.67v.78c-.3-.47-.15-1.79-1.34-1.79h-.11c-1.05 0-1.46 1.76-1.46 2.91v.22a1.53 1.53 0 001.34 1.34c1.6 0 1.66-1.72 1.68-.67a1.51 1.51 0 01-1.57 1h-.45c-.41 0-.39-.13-.78-.22v.67L67 14.11v-.45l.56-.9V11.2a2.09 2.09 0 01-1.34.56h-.9a1.75 1.75 0 01-1.08-.54l-.72 1.43-.45.67v-.78l.78-1.46a2.94 2.94 0 01-1.46.67h-.45c-.52 0-.64-.34-1-.34s-1.11 1.34-1.12 1.9c-.76.87.28 3-1.12 3.92l-.78-.11a1.2 1.2 0 01-1.23.67h-.11c-1.06 0-1.34-.52-1.9-.9a2 2 0 01-.34-.9v-.34c0-.65.51-.85.78-1.23l-.12.08-.55-1.24.13-.06c-.67.18-1 1.27-1 2.13v.78a4.5 4.5 0 00.22 1.23c1.38 2.66 4.45 3.66 4.45 6.84 0 2-4.86 5.17-5 7.38l1 .46c3.06.71 5.49 3.74 6.83 6.27l.67 1c.11-.47 1.2-2.26 1.54-3.05a22.33 22.33 0 001.23-3.48c.55-2.12.09-6.81 1.17-8.13.3-.37 1.93-1.32 2.6-2A7.87 7.87 0 0070 19.72c.43-1.18.46-2.38 1-3.59a10.23 10.23 0 00.89-3.81v-1.24c0-1.06-.79-2.41-1-3.36zm-7.69-2.9l-.4 1.1 1.25.57a2.78 2.78 0 00-.86-1.67zM65.41 6c.39-.09.38-.22.78-.22h.45a1.83 1.83 0 011.24.78c0 .07.78 1.53.78.79 0-1.35-1.41-2.88-1.68-4-.5.13-1.51 2-1.57 2.69zM30.24 1.46c-1.58 0-8.45 3.3-9.07 4.14A17.27 17.27 0 0124 4.7c2.12 0 5.48 5.45 6.38 7.17a13.74 13.74 0 01.34 1.57c0 .38-.14.3-.34.22 0-2-3.72-5.78-5-6.92-1.41-1.29-2.49-.6-4.12.2a20.39 20.39 0 00-3.81 2.24l-1.79 1.34c-1.42.95-6.64 6.16-7.09 7.64L11.54 17c.75.71-.14 1.87-.22 2.91l-.45 3.13-.23 1.96-.22 2.91v2.13l.14 1.9c.55-.4 2.69-4.67 4.14-4.7v.34c-1.7.42-4.29 7.62-4.51 10.26l-.34 2.8c2.41-2.77 3.89-3 6.27-5l4.14-.9c.07-.89.86-3 1.79-3l2.46 1.91-.52-2c.37.18 1.74 4.48 3.56 5.69 0-.52-.22-.55-.22-1.12v-.78c0-1 .7-2.65 1.79-2.13.19.39.22 3.12.46 3.91a9.1 9.1 0 001.48 2.77 19.33 19.33 0 004.78 3.84l-2-2.92.14-.1c1.38.5 3.88 4.22 4 6h.22c.59-2.53 1.4-3.84 1.67-7.06.19-2.32-.4-6.64 1.8-6.82l.12-.06.56 1.13 1-3.3.65-4.95.05-1.8-.61-8.51a11.42 11.42 0 01.73-4.11l-3.06-2.15-.67-.45L37 6.61l-.59-.33.25 1.79.08.68-.53 5.14-.4 1.19-.19-.08v-.78L36 9.74a6.26 6.26 0 00-.31-2.46l-.13 2.91h-.22c-.06-3.47-.92-11.38-5.1-8.73z" fill="#12100d" fill-rule="evenodd"/><path class="cls-39" d="M18.26 39c1.14.76 8.09 8.14 8.18 9.18l.47-.42c-.79-1.17-8-9.21-8.76-9.21-1.19 0-5.38 1-5.94 1.46 1.4-.12 3.72-1.23 5.38-1.23h.11a.59.59 0 01.56.22z"/><path class="cls-46" d="M42 40.64c1.07-1.24 1.48-4.14 4.59-4.14L46 38.4c1.5 2 .92 2.08 1.91 4.15l.89-.13A26.48 26.48 0 0047 36.8c-.68-1.53-1.52-3.66-3.73-3.66-.16.69-1.7 3.35-1.68 3.47z"/><path class="cls-47" d="M48.61 32.58c2.1 0 3.6 1.52 4.68 2.6.09.09 4 4.75 2.38 4.11-.68-.46-2.19-3-3.34-3.72s-2.81-2.22-4.73-2.22c-.15 0-.17.12-.22.22l.09-.1.92 1-1.79-.56a18.32 18.32 0 011.69 3.79 24.45 24.45 0 011.11 4.4h.34c2-.47 3.85-1.68 6.38-1.68.87 0 2.1.49 2.63.17s1-1.16 1.85-1.18l.56 1.88.34-.53c-.28-1.19-3.22-4.63-4-5.71s-1.56-1.26-3.12-1.81A24.51 24.51 0 0050.74 32H50a2.5 2.5 0 00-1.39.58z"/><path class="cls-44" d="M58.92 41.54l.62-.04.61-.74v-.56l-1.31.83.08.51z"/><path d="M60.82 42.21c.81 0 1-.35 1.46-.67l.12-1a5.49 5.49 0 01-1.58 1.34z" fill="#f49b62" fill-rule="evenodd"/><path class="cls-43" d="M49.73 42.1h-.33a24.45 24.45 0 00-1.11-4.38 18.32 18.32 0 00-1.69-3.79l-1.11-.47c0 .23 1 1.43 1.26 1.89a12.52 12.52 0 01.93 2.09 29.25 29.25 0 011.27 4.89z"/><path class="cls-33" d="M56.9 41.2c-1.42-.9-6.81 1.9-8.51 1.9h-.22c-1.62 0-1.52-5.56-3.58-4.25.85.07.11 1 0 1.71 0 .12.26 2.07.31 2.2.51 1.32 2.36 1.06 3.87.87a14.59 14.59 0 004.22-1c.74-.28 3.59-1.4 3.91-1.43z"/><path class="cls-38" d="M40.66 34.93c0 1.54.11 3.55 0 5a22.17 22.17 0 01-.9 4.14l1.67-.37a8.11 8.11 0 00.35-2.54l-.44-4.48H41l.11-1.23-.24-.78z"/><path class="cls-13" d="M29.68 51.28a27.7 27.7 0 007.49-1.36c1.14-.3 2.29-.55 3.44-.93 2.8-.91 1.26-.18 3.18.27-.59 2.54-1.35 2.7-3.1 4.18-1.41 1.19-2.59 2.22-4.07 3.32-1.65 1.24-6.77 5.6-9.07 5.6-.68 0-1.88-1.05-2.69-1.12l-.77 2A25.39 25.39 0 0027 64.39c1.65.6 1.37.51 2.91-.14A42.29 42.29 0 0035 61.53c3.66-2.19 5.58-4.47 8.42-7.37 1.45-1.48 2-2.94 4.66-3.29 3.74-.49 3.3-.42 6-1.84 2.38-1.24 8.18-4.28 8.18-7.5-.47.32-.64.67-1.46.67-1.17 1.69-1.42 2.68-3.44 3.73A11.06 11.06 0 0154.91 47c-.44.11-1 .19-1.47.32-.68.17-.68.43-1.13.55.55-2.35 7.84-.74 7.84-7.17l-.61.75h-.63l-2-.34c-.6.89-3.72 2.67-4.82 3.24-1.93 1-4.36.9-7.27.9-.07-.62-.9-1.37-.9-3V42c0-1 .56-2.19.56-3.14l-.11-.22H44c-1.25 1.86-1.1 2.77-1.86 5a10.9 10.9 0 00-.7 2.66c-.2 1.75.1 1.72-1.21 2.15a26.61 26.61 0 01-5.44 1.28c-1.79.19-4.3.35-5.11 1.55z"/><path class="cls-6" d="M56.9 41.2c-.32 0-3.17 1.15-3.88 1.38a14.59 14.59 0 01-4.22 1c-1.51.19-3.36.45-3.87-.87 0-.13-.33-2.08-.31-2.2.08-.71.82-1.64 0-1.71h-.11c0 .95-.56 2.09-.56 3.14v.34c0 1.65.83 2.4.9 3 2.91 0 5.34.08 7.27-.9 1.07-.5 4.18-2.29 4.78-3.18z"/><path class="cls-49" d="M23.41 26.54l-1.88 5 .2.05.33.13 2.46 1.91-.52-2c.37.18 1.74 4.48 3.56 5.69 0-.52-.22-.55-.22-1.12v-.78c0-1 .7-2.65 1.79-2.13.19.39.22 3.12.46 3.91a9.1 9.1 0 001.48 2.77 19.33 19.33 0 004.78 3.84l-2-2.92.14-.1c1.38.5 3.88 4.22 4 6h.22c.59-2.53 1.4-3.84 1.67-7.06.19-2.32-.4-6.64 1.8-6.82l.12-.06.55 1.15 1-3.3-1-3.36c-1.19 2.48-2.57 2.51-3.46 5s-.7 4.69-3.82 4.69h-.67c-2.7 0-3.52-2.93-5.12-4.51-1.28-1.18-5.9-2.13-4.75-4.52v-2.58z"/><path class="cls-50" d="M13.11 39.08c5.09-1.19 4.91-2.33 8.6 1.37a31.27 31.27 0 015.51 6.8c.45-.11.56-.34 1-.34h.34c.84 0 1.92 1.64 2.24 2.24l9.76-1.44-.18-.16.75-3.45c-1.72 0-1.45.51-2 1.76-.26.63-.93 2-1.63 2.06-.26-.55-.77-3-1.34-3h-.11l-5.14.85c-.54-2-7.76-10.25-10.2-10.25h-1.33a5 5 0 00-3.6 1.33c-.59.4-2.46 1.63-2.67 2.23z"/><path class="cls-49" d="M54.33 49.6a5.89 5.89 0 003.81-2.13l-.06-.11z"/><path class="cls-43" d="M53.16 50.71l-.07-.1c-.49 0-2 .59-2.85.74-1.85.33-1.41-.08-1.4 2.19z"/><path d="M18.37 59.45L19 60l2.28-5.32c-.72.15-2.28 4.32-2.91 4.77z" fill="#c8d7ed" fill-rule="evenodd"/><path class="cls-40" d="M19.15 55l-1.9 1.79c-.56-.38-5.23-3.92-5.37-4.15s-2.47-6.8-2.47-7c0-1 1.64-2.86 2.35-3.25a34 34 0 003.58-2.13 10.75 10.75 0 00-5.88 3c-2 2.56-1.58 2.83-.55 6.25.81 2.49 1.18 4.09 3.09 5.63.69.54 4.58 3.48 5.2 3.53z"/><path class="cls-47" d="M15.35 40.19a34 34 0 01-3.58 2.13c-.71.39-2.35 2.29-2.35 3.25 0 .25 2.28 6.74 2.47 7s4.81 3.77 5.37 4.15L19.15 55h.33L18 59.25l.4.21c.68-.5 2.19-4.62 2.91-4.81l1-1.55.17.11-1.27 3.57-1.12 3.92a3.92 3.92 0 002.58 1c.8 0 1.28-2.62 1.57-3.36.44-1.14.84-2.55 1.22-3.71.61-1.87 4.3-4.42 4.38-5.47l-1.26-1.32-.09.09a32.69 32.69 0 00-2.88 2.62c-1 .95-.91-.08-.32-.89.41-.56.83-1 1.19-1.5-.09-1-7-8.42-8.18-9.18z"/><path d="M45.7 52.62c.36.57-.86 3.3-1.1 3.83-1.22 2.74-.77 1.06-2.6 2.55-.94.76-1.87 1.54-2.86 2.29-.42.32-3.6 1.3-4 1.07-1.27.67-2.35 1.24-3.74 1.86-1.54.69-1.75 2.08-3.66 1.16l.07.1-1.3.8-.71.16 1.95 1.74c2-1.06 5.09-3 7.18-3.68 1.32-.4 2.76-.83 4.06-1.31 1.09-.4 3-1.41 3.88-1.61v.34l.58-.32-2.26 3.79c1.57 0 2.05-1.32 2.68-2.36A35 35 0 0146 60.11a12.53 12.53 0 002.26-7.82v-.56l-.06-.18z" fill="#196c3d" fill-rule="evenodd"/><path d="M.56 61.58a1.85 1.85 0 001.12 1z" fill="#743510" fill-rule="evenodd"/><path class="cls-6" d="M29.68 51.28a9.66 9.66 0 00-1.88 1.82c-1.13 1.17-.74.87-1.22 2.48-.55 1.83-1.29 3.81-1.72 5.67.81.07 2 1.12 2.69 1.12 2.3 0 7.42-4.36 9.07-5.6 1.48-1.1 2.66-2.14 4.07-3.32 1.75-1.48 2.51-1.64 3.1-4.18-1.92-.45-.38-1.17-3.18-.27-1.15.37-2.3.63-3.44.93a27.7 27.7 0 01-7.49 1.35z"/><path class="cls-50" d="M35.17 62.36c.37.24 3.55-.74 4-1.07 1-.76 1.92-1.53 2.86-2.29 1.83-1.49 1.38.19 2.6-2.55.24-.53 1.46-3.26 1.1-3.83-1.63 1.88-2.73 3.74-4.62 5.57a28.49 28.49 0 01-5.94 4.17z"/><path class="cls-43" d="M21.17 56.77l-1.72 4.69v.12l3.48 1.33c.56-2.35 1.86-5.62 2.6-7.83a6.5 6.5 0 012.11-3 16.11 16.11 0 002.49-2.66l-.34-.22c-.09 1.05-3.77 3.61-4.38 5.47-.38 1.15-.78 2.57-1.22 3.71-.29.74-.76 3.36-1.57 3.36a3.92 3.92 0 01-2.58-1z"/><path class="cls-39" d="M24.53 65.39a2.33 2.33 0 001.34.45h.45a1.23 1.23 0 001-.56l-3.14-1.12-.18.44h.22l.06.39z"/><path fill="#a1b7cd" fill-rule="evenodd" d="M24.53 65.39l-.28-.4-.05-.39h-.23l.23-.44-.13-.22-1.33.13 1.79 1.32z"/><path class="cls-55" d="M42.9 61.92l-.45.44-3.96 3.42.05.11 2.68-.5 2.26-3.8-.58.33z"/><path class="cls-56" d="M38 66.39c-.27 0-.41.21-.56.34h2v-.34z"/><path class="cls-57" d="M26.55 66.28l-2.46-.34.78 1.68A10.38 10.38 0 0028 69.53c.54 0 7.22-2.31 8.19-2.67 1.55-.59 4.69-4.13 6.26-4.49l.45-.45v-.34c-.87.2-2.79 1.21-3.88 1.61-1.31.48-2.74.91-4.06 1.31-2.09.63-5.17 2.62-7.18 3.68l-1.95-1.74z"/><path class="cls-58" d="M43.13 66.41l.38 2.59v1.24c0 .61-.39 1.46-.45 2.13a6.13 6.13 0 001-3.69v-.11a5.54 5.54 0 00-.67-2.57 3.12 3.12 0 01-2 .56h-.45v.25z"/><path class="cls-46" d="M24.87 67.63l-.78-1.68c-.49-.43-.85-.57-1.37-1.09-.31-.32-.78-1.11-1.2-1.15.06.87 2.61 3.72 3.35 3.92z"/><path class="cls-59" d="M40.77 73.67c1.09-.25 1.42-.42 1.72-1.53a12.27 12.27 0 00.41-2.84v-.67a6.91 6.91 0 00-.45-1.9 3.3 3.3 0 01-1 .22h-.34v3.58z"/><path d="M26.43 72.44h-.56c.07-.25 0-.34.34-.34H27c-.1.27-.13.34-.56.34zm1.35-.44l-.34-.22c-.93 0-2.28-.06-2.35.78a1.62 1.62 0 00.56.11h1.12a3 3 0 001.12-.45z" fill="#f4a94c" fill-rule="evenodd"/><path d="M26.43 72.44c.43 0 .46-.06.56-.34h-.78c-.31 0-.27.09-.34.34z" fill="#1c150e" fill-rule="evenodd"/><path class="cls-59" d="M38.64 70.3v.35L35 71.3v.58h.34l3.14-.32c-.16.56-2.16 1-2.91 1h-.45l.13 1.12 3.9-.55.39-2.8-.06-2.14h-.67c-2.21 0-3.7 0-3.7 2.24h2.13z"/><path class="cls-58" d="M39.91 66.61l.36 2.68-.05 2.25a18 18 0 01-.67 2.91c.88-.1.9-3.3.9-4.37v-3.46z"/><path class="cls-59" d="M27.44 71.77l.34.22.73 2.79h2a7.21 7.21 0 01-.9-3.13v-.78a4.49 4.49 0 01.22-1.23l-2.11.62-1.91-1.31h-.21l-1 3.36.14-.2zm5.16.23c-.21-1.21.84-3.1 1-3.81l-1.89.71-.41 3.65.2 2.24H33z"/><path class="cls-56" d="M33.94 71.66a4.73 4.73 0 011-3.17 9.88 9.88 0 013.28-.75h1.12v-.56h-2.26c-.15 0-1.54.39-1.78.46-.83.25-.84.07-1.27.86a10.24 10.24 0 00-.65 3.61v.34l.34 2.35h1.34a3.9 3.9 0 002-.45l-2.58.22a6.54 6.54 0 01-.56-2.8zm-9.63 0c0-1.84.9-2.21 1.12-3l-.43-.25c-.64.43-1.12 2.24-1.12 3.36v.45c0 1 .52 2.53.34 2.91a1.61 1.61 0 00.56.11h.11c.71 0-.56-1.52-.56-2.69zm6.88-2.59c-.83.22-1.17.35-1.17 1.46V71c0 1.3.55 4.35 1.46 4.59a12.1 12.1 0 01-.72-3.48z"/><path class="cls-57" d="M28.68 76.69c.71.06 1.13.75 1.24-.11s.08-1 .56-1.46L28.56 75z"/><path class="cls-62" d="M28.56 79.06l.16-.02-.77-6.26.05-.34-.44.11 1 6.51z"/><path d="M29.12 88.45c.31-1.31 1.14-2.59 1.34-4.37a37.26 37.26 0 00.45-5.15l-2.45.41-1.24-.07c-2.61 0-3.46-1.13-4.82-2.13 0 2.54 0 6.39.2 8.86s3.97 2.45 6.52 2.45z" fill="#0e391f" fill-rule="evenodd"/><path class="cls-64" d="M22.51 76.47a4.63 4.63 0 003.25 2l-.45-2.69z"/><path d="M25.88 76.35c.3 1.42-.14 2.47 1.45 2.47l-.69-5.93h-1.33a20.38 20.38 0 00.57 3.46z" fill="#f39b28" fill-rule="evenodd"/><path class="cls-62" d="M26.88 72.78a25.41 25.41 0 01.45 3.13c0 .53 0 3 .56 3h.34l-.94-6.15z"/><path class="cls-64" d="M30.69 78.82c-.24-.51 1.12-.92 1.12-2.91l-.89.13-.39-.52c-.06 1.06-.16 2.33-1.06 2.4l.27-.66-.95-.34.14 2h1a6.21 6.21 0 00.76-.1z"/><path d="M3.58 78.37c0-1-1-2.11-1-3.58a16.68 16.68 0 012-6.62l1.28 6.46-.12.12 1.25-1.53c0 3.51-2.13 5-2.13 6.16l.3-.47v.92c1.07-.29 3.25-2.93 3.25-4.37v-1.34c0-1.08-1-6-1.34-6.27l-.14 1.9v.79l.24 2c-.33-.23-1.87-7.34-4.95-9.4.21.78 1.46 1.61 1.46 3.36v.34C3.7 69.82 2 71.08 2 74a9.27 9.27 0 001.58 4.37z" fill="#c84a16" fill-rule="evenodd"/><path d="M15.23 87.22c-.55.63-1.22 2.47-2.15 3.56-1.41 1.66-2.14 1.43-3.23 2.37a6 6 0 01-3.35 1.57h-.68c-1.69 0-3.8-4.27-3.58-6.16H2.1l.93-8c-.57 2.44-1.34 4.21-1.34 7.39V89c-.01 4 2.6 8 6.6 8h1c3.81 0 6.93-4.88 8.17-7.73.8-1.85 1.37-3.91 2.15-5.8a9.31 9.31 0 011.48-2.55c.65-.73.41-2.18.41-3.51-2.87 1.88-4.79 8.73-6.27 9.81z" fill="#ed700f" fill-rule="evenodd"/><path class="cls-64" d="M41.56 86.1A26.79 26.79 0 0043 80.46c.08-.81-.74-4.44-.74-6.23-.58.31-.34 1.95-.34 2.8 0 1.14-.12 2-.11 3-.02 1.97-.25 4.14-.25 6.07z"/><path class="cls-6" d="M15.23 87.22c1.47-1.08 3.4-7.93 6.27-9.85 0-1.61.87-1.41 1.9-1.9l-.52-3c-2.66 1.43-3.62 3.43-4.81 6.42a81.3 81.3 0 00-2.84 8.33zM3.58 78.37L4 77.9l-1 2.6-.93 8h.14c-.22 1.89 1.9 6.16 3.58 6.16h.71a6 6 0 003.36-1.57l-1.23.14h-.68c-2.85 0-4.14-3-4.14-6v-1.35h-.14l1.15-6.47c0-1.2 2.13-2.65 2.13-6.16l-1.26 1.5.13-.12-1.29-6.45a16.68 16.68 0 00-2 6.62c.05 1.46 1.03 2.55 1.05 3.57z"/><path class="cls-57" d="M24.53 88.56l3.58 2.35-5.37 13.31h4.06q.51-1.08 1.05-2.15c1.7-3.38 3.24-7 4.73-10.5.76-1.79 1.49-3.57 2.26-5.35.38-.88.71-1.78 1.15-2.66a17.83 17.83 0 001.42-2.39v-.11l-.14-6.16-2.27.52v3.29c0 2.3.15 2.07 1 3.36-1.2-.32-1.34-2.36-1.34-3.81v-2.91h-.9l-1.9-.28c.19.22.44.29.44.61v1a1.77 1.77 0 01-1.12 1.68c0 2.51-.72 10.41-2.46 10.41h-1.84z"/><path class="cls-57" d="M40 104.23l.64-13.87 1-16.35-1.06.28c-.23.4-.3.85-1 .85h-.38c-.6 0-.47-.34-1.34-.34v4.48c0 3-.21 1.83-1 3.71a71.87 71.87 0 00-2.48 6.81v8.06l.45 6.37z"/><path d="M34.62 104.23L34 90.36h.16c-.33.37-1.79 4.37-2.11 5.17-.85 2.11-.28 4.07-.24 6.59 0 .67.06 1.39.12 2.12z" fill="#1e8245" fill-rule="evenodd"/><path class="cls-50" d="M22.75 104.23l5.37-13.31-3.58-2.35c-.62-.54-2.1-.53-2.13-1.9h-.22c0 1.63-5.06 14.32-5.92 16.47l-.44 1.09z"/><path class="cls-55" d="M40.52 104.23l.03-5.48.11-8.4-.64 13.88h.5z"/></g></g></svg>