<svg xmlns="http://www.w3.org/2000/svg" viewBox="0 0 19.44 17.92"><defs><style>.cls-1{fill:#fff;fill-rule:evenodd}</style></defs><g id="Слой_2" data-name="Слой 2"><g id="_1" data-name="???? 1"><path class="cls-1" d="M5.94 5.99v1.5l.05.02h5.97l.04-.02v-1.5l-.02-.02H5.99l-.05.02zm0 2.97v1.5l.05.02h5.97l.04-.02v-1.5l-.02-.02H5.99l-.05.02zm0 2.97v1.5l.05.02h3.73l.02-.02v-1.5l-.02-.02H5.99l-.05.02z"/><path class="cls-1" d="M17.42 17.87s.09 0 0 0zm-13.22 0s.09 0 0 0zm13.69-.12zm.31-.07h.15V16h-.05 1.1v-2.59h-2.93V1.78v.05-.33h-.18V.21L15 .17 14.9.1h-.55V0h.07H1.64l-.07.1-.07.02h-.09v.17H.86v.38h.05L0 1.93v2.59h13.45V2.14h.07v-.05h.59V1.9h.08v14.06-.05.26H3.59h.66H4v-.29.07V5.23H2.28v10.91h.05v.24h.08v.16h1.88-.07 13.81v-.07zm-14.71 0zm-.81-.69zm14.71-.64zm-.52 0zM4 16.16zm13.67-.1h-.81V16h-.08v-.86h1.36V16h-.07v.05zM1.71 1.93v-.05h10.01v.26h.05l-.05.09V3H1.61v-.86h.07zm12.72-.33zm-.52 0zM2 1.59zM14.93.14zM1.52.14zM14.45 0s.09 0 0 0zM2 0s.09 0 0 0z"/></g></g></svg>