<svg xmlns="http://www.w3.org/2000/svg" width="97.57" height="89.937" viewBox="0 0 19.96 18.4" shape-rendering="geometricPrecision" text-rendering="geometricPrecision" image-rendering="optimizeQuality" fill-rule="evenodd" clip-rule="evenodd"><defs><style>.fil0{fill:#fefefe}</style></defs><g id="Слой_x0020_1"><g id="_2882013182704"><path class="fil0" d="M6.1 6.15v1.54l.05.02h6.12l.05-.02V6.15l-.02-.03H6.15zm0 3.05v1.54l.05.02h6.12l.05-.02V9.2l-.02-.03H6.15zm0 3.05v1.53l.05.03h3.83l.02-.03v-1.53l-.02-.03H6.15z"/><path class="fil0" d="M17.88 18.35c.02-.02.09.03.03.01 0 0-.03-.01-.02-.01zm-13.57 0c.02-.02.09.03.03.01 0 0-.03-.01-.02-.01zm14.05-.12c.04-.04-.04.04 0 0zm.32-.07l.05-.02v-.05h.07l.05-.02.02-.02.02-.02.05-.02.02-.02.05-.02-.03-.03.02-.01.05.01.02-.05.02-.02.05-.02.02-.02.02-.02.02-.02.02-.02.02-.02.02-.02.02-.02.02-.05.05-.02.02-.05.02-.02.02-.05.02-.02-.03-.03.02-.02.03.02.02-.05.02-.02.02-.07.02-.02.02-.02v-.02l.02-.02.02-.05v-.05l.02-.02.02-.02.02-.05v-.05h-.02v-.02h.04l.02-.05.02-.12.02-.07.02-.05v-.12l-.05.05.05-.1h.02l.02-.12v-2.54l-.05-.02h-3V2.21l-.02-.12h-.02l-.04-.1.04.05v-.12l-.02-.05-.02-.07-.02-.12-.02-.05h-.04v-.02h.02v-.05l-.02-.05-.02-.02-.02-.02v-.05l-.02-.05-.02-.02v-.02l-.02-.02-.02-.02-.02-.07-.02-.02-.02-.05-.03.03-.02-.02.02-.03-.02-.02-.02-.05-.02-.02-.02-.05-.05-.02-.02-.05L16.2.9l-.02-.02-.02-.02-.02-.02-.02-.02L16.1.8l-.02-.02-.05-.02-.02-.02-.02-.05-.05.03-.02-.02.02-.03-.05-.02-.02-.02-.05-.02-.02-.02-.02-.02-.05-.02h-.07V.5l-.05-.02-.06.05.01-.07-.05-.02-.1-.02-.02-.02-.05-.02-.07-.02-.07-.02-.07-.02h-.07L14.99.3l-.1-.02h-.17V.3l.07.02-.12-.02H2.08h.07V.28h-.17l-.1.02-.07.02h-.07l-.07.02-.07.02-.07.02-.05.02-.02.02-.1.02-.05.02v.07L1.26.48 1.21.5v.05h-.07l-.05.02-.02.02-.02.02L1 .63.98.65.93.67.96.7.94.71.89.7.87.75.85.77.8.79.78.81.76.83.74.85.72.87.7.89.68.91.66.93.64.98.59 1l-.02.05-.02.02-.02.05-.02.02.03.03-.02.02-.03-.02-.02.05-.02.02-.02.07-.02.02-.02.02v.02l-.02.02-.02.05v.05l-.02.02-.02.02-.02.05v.05h.02v.02H.27l-.02.05-.02.12-.02.07-.02.05v.12l.05-.05-.05.1H.17l-.02.12v2.54l.05.02h13.76l.05-.02.02-2.44v-.02l-.02-.02.02-.02.02-.05.02-.02v-.05l-.03.03-.02-.03.07-.02.02-.02-.03-.05.02-.02.03.02.02-.02.02-.02.02-.02.02-.02.02-.02.02-.02.07-.02.05-.02.07-.02.05-.02h.32l.05.02.07.02.05.02.07.02.02.02.02.02.02.02.02.02.02.02.02.02.03-.03.01.02-.01.05.02.02.08.03-.02.02-.03-.02v.05l.02.02.02.05.02.02-.02.02v.02l.02 14.1.02.12h.02l.04.1-.04-.05v.12l.02.05.02.07.02.07-10.74-.02-.15-.02-.05-.02H4.4l-.02-.02-.02-.02-.07-.02-.02-.02-.02-.02-.02-.02-.02-.02h-.05v-.05l-.02-.02-.02-.05-.02-.02-.02-.05-.02-.12-.02-.17h-.02L4 16.3V5.54l-.02-.05H2.44l-.02.05v10.88l-.02.07v.02l.02.15.02.1h.02l.05.03-.02.02-.03-.02v.07l.02.07.02.05.02.1.02.05.08.03-.02.02-.03-.02v.05l.02.02.02.02.02.1.02.02.02.05.03-.03.02.02-.02.03.02.05.02.05.02.02.02.05.02.02h.05v.07l.02.02.02.02.02.02h.05v.05l.02.02.02.02.02.02.02.02.02.02.02.02.02.02.02.02.02.02.02.02.05.02.02.02.05.02.02.02.02.02.05.02.05.02.05.02.02.02.05.02.05.02.05.02.07.02.05.02.05.02h.07v.02l.07.02.07.02h.07l.05.02.12.02h.17v-.02l-.07-.02.12.02h13.34-.07v.02h.17l.1-.02.07-.02h.07l.07-.02.07-.02.07-.02.05-.02.02-.02.1-.02.05-.02v-.07l.05.05zm-15.1-.05c.04-.04-.04.04 0 0zm-.83-.71c.04-.04-.04.04 0 0zm15.1-.66c.04-.04-.04.04 0 0zm-.54 0c.04-.04-.04.04 0 0zm-13.2-.15c.04-.04-.04.04 0 0zm14.03-.1l-.02.02-.02.02-.02.02-.02.02-.02.02-.02.02-.07.02-.05.02-.07.02-.05.02h-.32l-.05-.02-.07-.02-.05-.02-.07-.02-.02-.02-.02-.02-.02-.02-.02-.02-.02-.02-.02-.02-.03.03-.01-.02.01-.05-.02-.02-.08-.03.02-.02.03.02v-.05l-.02-.02-.02-.05-.02-.02.02-.02v-.02l-.02-.88h1.39l-.03.88v.02l.02.02-.02.02-.02.05-.02.02v.05l.03-.03.02.03-.07.02-.02.02.03.05-.02.02-.03-.02zM1.74 1.97l.02-.02-.03-.05.02-.02.03.02.02-.02.02-.02.02-.02.02-.02.02-.02.02-.02.07-.02.05-.02.07-.02.05-.02.17-.02 9.96-.02-.03.07-.02.07-.02.05v.12l.05-.05-.05.1h-.02l-.02.12v.98H1.62l.03-.88v-.02l-.02-.02.02-.02.02-.05.02-.02v-.05l-.03.03-.02-.03.07-.02zm13.05-.34c.04-.04-.04.04 0 0zm-.54 0c.04-.04-.04.04 0 0zm-12.2 0c.04-.04-.04.04 0 0zM15.3.14c.04-.04-.04.04 0 0zM1.54.14c.04-.04-.04.04 0 0zM14.81.02c.02-.02.09.03.03.01 0 0-.03-.01-.02-.01zM2 .02c.02-.02.09.03.03.01 0 0-.03-.01-.02-.01z"/></g></g></svg>