<svg xmlns="http://www.w3.org/2000/svg" viewBox="0 0 62.46 14.64"><g data-name="Слой 2"><path d="M12.13 0H3.21L1.6 11.53H0v3.1h2.12c1.73 0 2.56-1.08 2.93-2.76l1.15-9h2.43v11.77h3.5zm25.22 2.92h4.33v8.81h-4.33V2.92zM34.48 0v14.64h10.07V0zm-7.54 0h5.86v2.92h-4.42v11.72h-3.3a.2.2 0 01-.2-.2V2.05A2.06 2.06 0 0126.94 0zm21.81 0h6.09v2.92h-4.65v8.81h4.65v2.91h-6.09a2.06 2.06 0 01-2.05-2.05V2.05A2.06 2.06 0 0148.75 0zM16.32 0h6a2 2 0 01.39 0v2.92h-4.94V6h3.72v2.91h-3.72v2.82h4.91v2.87a2 2 0 01-.39 0h-6a2.06 2.06 0 01-2.05-2.05V2.05A2.06 2.06 0 0116.32 0zm42.1.52h.88V0h-2.37v.52h.88v2.4h.61V.52zm4-.52h-.75l-.65 2.34L60.39 0h-.76v2.92h.57V1.27l.48 1.65h.74l.46-1.65v1.65h.57z" fill="#fff" fill-rule="evenodd" data-name="???? 1"/></g></svg>