<svg xmlns="http://www.w3.org/2000/svg" xmlns:xlink="http://www.w3.org/1999/xlink" viewBox="0 0 101.86 18.79"><defs><radialGradient id="b" cx="75.92" cy="9.21" r="9.85" xlink:href="#a"/><radialGradient id="g" cx="6.36" cy="4.06" r="3.94" xlink:href="#a"/><radialGradient id="c" cx="61.48" cy="9.21" r="9" xlink:href="#a"/><radialGradient id="d" cx="89.69" cy="9.21" r="9.12" xlink:href="#a"/><radialGradient id="e" cx="48.34" cy="9.21" r="9.26" xlink:href="#a"/><radialGradient id="f" cx="100.23" cy="1.84" r="1.88" xlink:href="#a"/><radialGradient id="a" cx="33.72" cy="9.21" r="9.26" gradientUnits="userSpaceOnUse"><stop offset="0" stop-color="#009640"/><stop offset="1" stop-color="#0b5e36"/></radialGradient><radialGradient id="h" cx="14.52" cy="13.39" r="5.2" xlink:href="#a"/><radialGradient id="i" cx="14.52" cy="4.07" r="3.95" xlink:href="#a"/><radialGradient id="j" cx="6.38" cy="13.39" r="5.21" xlink:href="#a"/><radialGradient id="k" cx="11.29" cy="4.11" r="3.09" xlink:href="#a"/><radialGradient id="l" cx="5.81" cy="11.62" r="1.91" xlink:href="#a"/></defs><g data-name="Слой 2"><g data-name="???? 1" fill-rule="evenodd"><path d="M37.29 0H25.85l-2.06 14.8h-2.06v4h2.72c2.22 0 3.29-1.38 3.75-3.54l1.48-11.5h3.13v15h4.49z" fill="url(#a)"/><path d="M69.65 3.75h5.56v11.3h-5.56V3.75zM66 0v18.79h12.89V0z" fill="url(#b)"/><path d="M56.29 0h7.52v3.75h-5.67v15h-4.23a.26.26 0 01-.26-.26V2.64A2.64 2.64 0 0156.29 0z" fill="url(#c)"/><path d="M84.28 0h7.81v3.75h-6v11.3h6v3.73h-7.81a2.64 2.64 0 01-2.64-2.64V2.64A2.64 2.64 0 0184.28 0z" fill="url(#d)"/><path d="M42.67 0h7.65a2.61 2.61 0 01.5 0v3.75h-6.3v4h4.78v3.71h-4.78v3.62h6.3v3.69a2.62 2.62 0 01-.5 0h-7.65A2.64 2.64 0 0140 16.16V2.64A2.64 2.64 0 0142.67 0z" fill="url(#e)"/><path d="M96.67.67h1.13V0h-3v.67h1.13v3.08h.78V.67zm5.19-.67h-1l-.84 3-.86-3h-1v3.75H99V1.64l.61 2.12h.95l.59-2.11v2.1h.73z" fill="url(#f)"/><path d="M.29 0h8v8.29H.13A46.08 46.08 0 010 3.49L.29 0zm2.14 5.94h1.06V4.12h.95v1.82h1.07V1.87h-.45v.36h-.4v-.35h-.45v.36h-.44v-.37h-.45v.36h-.43v-.36h-.46z" fill="url(#g)"/><path d="M8.25 8.3h8.15c-.52 5.12-4.11 8.52-8.14 10.38V8.3zm2 5.39h1.05v-1.82h.95v1.81h1.07V9.62h-.42V10h-.4v-.37h-.45V10h-.43v-.37h-.45V10h-.44v-.38h-.45z" fill="url(#h)"/><path fill="url(#i)" d="M8.26 0h7.79l.33 3.78.02 4.52h-.28l.12-4.52L15.86.2 8.26.17V0z"/><path d="M.13 8.29h.08c.17 2.19 2.13 8.12 8 10.06v.34C.8 15.37.15 9.23.13 8.29z" fill="url(#j)"/><path fill="url(#k)" d="M10.4 2.98v-.83h.41v.38l-.13.02v.69l.28.62.45.46.01-.08-.08-.16-.18-.78-.06-.58v-.57l1.37.02.49.2-.09.21-.08.21-.07.14.04.18.11.14.8-1.1h.58l-.03.64-.37.02v-.15l-.67.91.66.94.01-.19h.4v.67h-.52l-.78-1.05-.34.39.48.08.52.67-.44.63.66.02v-.18h.42v.6h-1.22l-.84-1.13-.26.34h-.84l-.2.26.01.09.61.01.01-.16.44-.01.05.59-.6.01H10.4V4.32l.53-.01-.34-.59-.13-.38-.06-.36z"/><path fill="url(#l)" d="M6.69 10.49v-.83h-.41v.39l.14.02v.69l-.29.61-.45.46-.01-.08.09-.15.17-.79.06-.58v-.57l-1.37.03-.48.19.08.21.08.22.07.13-.04.18-.11.14-.8-1.1h-.58l.03.65.38.02v-.15l.66.9-.66.94-.01-.19h-.4v.67h.52l.78-1.04.35.38-.49.08-.52.68.45.63-.67.01v-.18l-.42.01v.59h1.22l.84-1.12.26.33H6l.2.26-.01.09-.61.01-.01-.16-.44-.01-.04.59.59.01h1.01v-1.83h-.52l.33-.59.13-.39.06-.36z"/></g></g></svg>